<?xml version="1.0" encoding="utf-8"?>
<!-- Generator: Adobe Illustrator 22.0.1, SVG Export Plug-In . SVG Version: 6.00 Build 0)  -->
<svg version="1.1" id="Capa_1" xmlns="http://www.w3.org/2000/svg" xmlns:xlink="http://www.w3.org/1999/xlink" x="0px" y="0px"
	 viewBox="0 0 97 213.7" style="enable-background:new 0 0 97 213.7;" xml:space="preserve">
<style type="text/css">
	.st0{fill:#36432B;}
	.st1{fill:#E0C3AD;}
	.st2{fill:#D3B19B;}
	.st3{opacity:0.5;fill:#BE9E89;}
	.st4{fill:#BE9E89;}
	.st5{fill:#A78E7B;}
	.st6{fill:#E3CBB2;}
	.st7{fill:#DBBC9A;}
	.st8{fill:#5E6740;}
	.st9{fill:#4B613B;}
	.st10{opacity:0.2;fill:#272424;}
	.st11{fill:#95AC84;}
	.st12{fill:#E0C2AD;}
	.st13{fill:#A18573;}
	.st14{opacity:0.3;fill:#C49790;}
	.st15{fill:#E8D8C9;}
	.st16{fill:#CDA9A2;}
	.st17{fill:#DEB9B0;}
	.st18{fill:url(#SVGID_1_);}
	.st19{fill:url(#SVGID_2_);}
	.st20{fill:#E9CC45;}
	.st21{fill:#D7B444;}
	.st22{opacity:0.6;fill:#BE9E89;}
	.st23{opacity:0.4;fill:#BE9E89;}
	.st24{fill:#596E48;}
	.st25{fill:#455837;}
	.st26{fill:#FFFFFF;}
	.st27{fill:#637C4F;}
	.st28{fill:#576D46;}
	.st29{fill:#637953;}
	.st30{opacity:0.7;fill:#576D46;}
	.st31{fill:#3D4C31;}
</style>
<g id="Green_Arrow">
	<g id="hood2">
		<polygon class="st0" points="48.5,144.9 5.8,133.5 3,119.7 6.8,62.9 10.8,22 41.1,2.7 48.5,0 		"/>
		<polygon class="st0" points="48.5,144.9 91.2,133.5 94,119.7 90.3,62.9 86.2,22 55.9,2.7 48.5,0 		"/>
	</g>
	<g id="neck_11_">
		<polygon class="st1" points="90.2,133.5 68.1,123.6 68.1,87.8 48.5,87.8 48.5,87.8 28.9,87.8 28.9,123.1 6.8,133.5 48.6,204 		"/>
		<polygon class="st1" points="68.1,126.4 48.5,133.5 28.9,126.4 28.9,87.8 68.1,87.8 		"/>
		<polygon class="st2" points="48.5,87.8 48.5,87.8 28.9,87.8 28.9,123.1 6.8,133.5 48.6,204 		"/>
		<polygon class="st3" points="48.5,143.3 28.9,133.5 28.9,87.8 48.5,87.8 		"/>
		<polygon class="st4" points="48.5,91 28.9,91 28.9,104.3 35.2,117.6 48.5,122.6 		"/>
		<polygon class="st3" points="48.5,122.6 61.9,117.6 68.1,104.3 68.1,91 48.5,91 		"/>
		<polygon class="st5" points="28.9,123.1 5.8,133.5 28.9,133.5 		"/>
		<polygon class="st6" points="56.5,137.3 75.3,132.5 91.2,130.5 48.5,143.3 		"/>
		<polygon class="st7" points="40.5,137.3 21.7,132.5 5.8,130.5 48.5,143.3 		"/>
	</g>
	<g id="chest_11_">
		<polygon class="st8" points="97,213.7 0,213.7 0,135.6 5.8,133.5 40.5,144.9 48.6,204 56.5,144.9 91.2,133.5 97,135.5 		"/>
		<g>
			<polygon class="st9" points="58.8,154.4 97,157.4 97,135.5 91.2,133.5 56.5,144.9 54.8,157.4 			"/>
			<polygon class="st9" points="38.2,154.4 0,157.4 0,135.6 5.8,133.5 40.5,144.9 42.2,157.4 			"/>
		</g>
		<polygon class="st10" points="48.6,204 40.5,144.9 5.8,133.5 0,135.6 0,213.7 48.5,213.7 		"/>
		<g>
			<path class="st11" d="M57.4,164.3c-0.2,0-0.4-0.1-0.5-0.2l-18.8-12.4c-0.5-0.3-0.6-0.9-0.3-1.4c0.3-0.5,0.9-0.6,1.4-0.3L58,162.5
				c0.5,0.3,0.6,0.9,0.3,1.4C58.1,164.1,57.8,164.3,57.4,164.3z"/>
			<path class="st11" d="M39.4,164.3c-0.3,0-0.6-0.2-0.8-0.4c-0.3-0.5-0.2-1.1,0.3-1.4l18.8-12.4c0.5-0.3,1.1-0.2,1.4,0.3
				c0.3,0.5,0.2,1.1-0.3,1.4L40,164.1C39.8,164.2,39.6,164.3,39.4,164.3z"/>
			<path class="st11" d="M55.6,181.2c-0.2,0-0.4-0.1-0.5-0.2l-15.7-10.4c-0.5-0.3-0.6-0.9-0.3-1.4c0.3-0.5,0.9-0.6,1.4-0.3
				l15.7,10.4c0.5,0.3,0.6,0.9,0.3,1.4C56.3,181.1,56,181.2,55.6,181.2z"/>
			<path class="st11" d="M41.2,181.2c-0.3,0-0.6-0.2-0.8-0.4c-0.3-0.5-0.2-1.1,0.3-1.4L56.4,169c0.5-0.3,1.1-0.2,1.4,0.3
				c0.3,0.5,0.2,1.1-0.3,1.4l-15.7,10.4C41.6,181.2,41.4,181.2,41.2,181.2z"/>
			<path class="st11" d="M54,196.8c-0.2,0-0.4-0.1-0.5-0.2l-12.1-8c-0.5-0.3-0.6-0.9-0.3-1.4c0.3-0.5,0.9-0.6,1.4-0.3l12.1,8
				c0.5,0.3,0.6,0.9,0.3,1.4C54.6,196.6,54.3,196.8,54,196.8z"/>
			<path class="st11" d="M42.9,196.8c-0.3,0-0.6-0.2-0.8-0.4c-0.3-0.5-0.2-1.1,0.3-1.4l12.1-8c0.5-0.3,1.1-0.2,1.4,0.3
				c0.3,0.5,0.2,1.1-0.3,1.4l-12.1,8C43.3,196.7,43.1,196.8,42.9,196.8z"/>
		</g>
	</g>
	<g id="face_10_">
		<polygon class="st12" points="59.6,6.9 48.5,6.9 37.4,6.9 18.7,22.2 18.7,82.3 37.2,108.6 48.5,108.6 59.8,108.6 78.3,82.3 
			78.3,22.2 		"/>
		<g id="ears_4_">
			<polygon class="st13" points="19.2,53.4 13.8,53.4 15.5,72.4 19.2,72.4 			"/>
			<polygon class="st13" points="77.8,53.4 83.2,53.4 81.5,72.4 77.8,72.4 			"/>
		</g>
		<polygon class="st14" points="48.5,6.9 37.4,6.9 18.7,22.2 18.7,82.3 37.2,108.6 48.5,108.6 		"/>
		<polygon class="st15" points="48.5,104.6 59.8,106.6 64.9,86.1 78.3,61.9 78.3,22.2 59.6,6.9 48.5,6.9 		"/>
		<polygon class="st12" points="48.5,104.6 37.2,106.6 32.1,86.1 18.7,61.9 18.7,22.2 37.4,6.9 48.5,6.9 		"/>
		<polygon class="st4" points="42.5,74.2 48.5,77.4 54.5,74.2 		"/>
		<polygon class="st16" points="54.5,74.2 48.5,75.3 42.5,74.2 48.5,52.5 		"/>
		<polygon class="st17" points="48.5,52.5 54.5,74.2 48.5,75.3 		"/>
		<linearGradient id="SVGID_1_" gradientUnits="userSpaceOnUse" x1="47.8779" y1="40.2561" x2="40.986" y2="97.4082">
			<stop  offset="0" style="stop-color:#FFFFFF"/>
			<stop  offset="1" style="stop-color:#FFFFFF;stop-opacity:0"/>
		</linearGradient>
		<polygon class="st18" points="33.9,86.1 37.2,106.6 48.5,104.6 48.5,86.1 		"/>
		
			<linearGradient id="SVGID_2_" gradientUnits="userSpaceOnUse" x1="3591.6038" y1="68.4755" x2="3612.9495" y2="97.0574" gradientTransform="matrix(-1 0 0 1 3666.5842 0)">
			<stop  offset="0" style="stop-color:#FFFFFF"/>
			<stop  offset="1" style="stop-color:#FFFFFF;stop-opacity:0"/>
		</linearGradient>
		<polygon class="st19" points="63.1,86.1 59.8,106.6 48.5,104.6 48.5,86.1 		"/>
		<g>
			<polygon class="st20" points="45,76.5 48.5,77.5 48.5,80.8 47.5,84.1 36,87.8 25.2,86.1 20.8,83.1 30.9,83.1 41.1,77.2 			"/>
			<polygon class="st20" points="52,76.5 48.5,77.5 48.5,80.8 49.6,84.1 61,87.8 71.8,86.1 76.2,83.1 66.1,83.1 56,77.2 			"/>
			<polygon class="st21" points="47.3,82.2 48.5,77.5 48.5,80.8 47.5,84.1 36,87.8 25.2,86.1 20.8,83.1 29.5,85.6 42.5,84.1 			"/>
			<polygon class="st21" points="49.8,82.2 48.5,77.5 48.5,80.8 49.6,84.1 61,87.8 71.8,86.1 76.2,83.1 67.5,85.6 54.5,84.1 			"/>
		</g>
		<g>
			<polygon class="st20" points="66.3,97.9 63.7,91 61.3,97.1 54.8,98.5 52,91.3 48.5,91.3 48.5,99.9 48.5,91.3 45,91.3 42.2,98.5 
				35.7,97.1 33.3,91 30.7,97.9 35.5,110.7 48.5,121.4 48.5,121.4 48.5,121.4 48.5,121.4 48.5,121.4 61.5,110.7 			"/>
			<polygon class="st21" points="66.3,97.9 56.8,113.7 48.5,117.8 40.7,113.7 30.7,97.9 35.5,110.7 48.5,121.4 48.5,121.4 
				48.5,121.4 48.5,121.4 48.5,121.4 61.5,110.7 			"/>
		</g>
		<polygon class="st22" points="22,49.3 19.6,50.2 25.9,33.3 48.5,39.8 48.5,44.8 27.7,34.7 		"/>
		<polygon class="st23" points="75,49.3 77.5,50.2 71.1,33.3 48.5,39.8 48.5,44.8 69.4,34.7 		"/>
	</g>
	<g id="hair_5_">
		<polygon class="st20" points="68.5,7.4 48.5,0.5 48.5,0.5 28.5,7.4 16.5,20.4 14.5,37.9 18.7,72.4 18.7,48.9 24.3,35.6 24.7,22.1 
			52.7,26.1 68.8,21.3 72.6,35.6 78.3,51.3 78.3,72.4 82.5,37.9 80.5,20.4 		"/>
		<polygon class="st20" points="38.5,35.8 35.1,41.5 37.6,45.2 38.8,40.4 46.7,34.7 		"/>
	</g>
	<g id="mask_7_">
		<g>
			<polygon class="st24" points="75,49.3 80.3,51.3 80.3,53.8 68.3,63 50.9,57.4 48.5,53.6 48.5,52.5 66.7,51.3 			"/>
			<polygon class="st25" points="73.7,51.3 52,53.1 54.2,56.7 66.3,60 72.8,57.1 77.5,52.3 			"/>
			<polygon class="st26" points="72.7,52.3 55.9,53 59.2,56.1 71,54.3 			"/>
			<polygon class="st27" points="48.5,52.5 50.9,57.4 48.5,53.6 			"/>
		</g>
		<g>
			<polygon class="st9" points="22,49.3 16.7,51.3 16.7,53.8 28.7,63 46.1,57.4 48.5,53.6 48.5,52.5 30.3,51.3 			"/>
			<polygon class="st25" points="23.3,51.3 45,53.1 42.8,56.7 30.7,60 24.2,57.1 19.5,52.3 			"/>
			<polygon class="st26" points="24.3,52.3 41.1,53 37.8,56.1 26,54.3 			"/>
			<polygon class="st25" points="48.5,52.5 46.1,57.4 48.5,53.6 			"/>
		</g>
	</g>
	<g id="hood1">
		<polygon class="st9" points="48.5,39.8 25.9,33.3 16.7,58 15.6,114.4 40.5,144.9 5.8,133.5 3,119.7 6.8,62.9 10.8,22 32.8,2.3 
			48.5,0 		"/>
		<polygon class="st9" points="48.5,39.8 71.1,33.3 80.4,58 81.5,114.4 56.5,144.9 91.2,133.5 94,119.7 90.3,62.9 86.2,22 64.3,2.3 
			48.5,0 		"/>
		<polygon class="st28" points="81.5,114.4 56.5,144.9 94,119.7 		"/>
		<polygon class="st29" points="48.5,39.8 77.1,33.3 83.4,58 90.3,62.9 86.2,22 64.3,2.3 48.5,0 		"/>
		<polygon class="st30" points="15.6,114.4 40.5,144.9 3,119.7 		"/>
		<polygon class="st28" points="48.5,39.8 19.9,33.3 13.7,58 6.8,62.9 10.8,22 32.8,2.3 48.5,0 		"/>
		<polygon class="st25" points="56.5,144.9 55.8,150.1 77.6,146.7 91.2,133.5 		"/>
		<polygon class="st31" points="40.5,144.9 41.2,150.1 19.4,146.7 5.8,133.5 		"/>
	</g>
</g>
</svg>
