<?xml version="1.0" encoding="utf-8"?>
<!-- Generator: Adobe Illustrator 22.0.1, SVG Export Plug-In . SVG Version: 6.00 Build 0)  -->
<svg version="1.1" id="Capa_1" xmlns="http://www.w3.org/2000/svg" xmlns:xlink="http://www.w3.org/1999/xlink" x="0px" y="0px"
	 viewBox="0 0 97 241.2" style="enable-background:new 0 0 97 241.2;" xml:space="preserve">
<style type="text/css">
	.st0{fill:#919295;}
	.st1{opacity:0.4;fill:#272424;}
	.st2{fill:#434243;}
	.st3{opacity:0.5;fill:#272424;}
	.st4{fill:#595A5B;}
	.st5{opacity:0.5;fill:#434243;}
	.st6{opacity:0.2;fill:#272424;}
	.st7{fill:#E0C3AD;}
	.st8{fill:url(#SVGID_1_);}
	.st9{fill:#BE9E89;}
	.st10{fill:#CDA9A1;}
	.st11{fill:url(#SVGID_2_);}
	.st12{fill:url(#SVGID_3_);}
	.st13{fill:url(#SVGID_4_);}
	.st14{fill:#6D6D6F;}
	.st15{fill:#272424;}
	.st16{fill:#FFFFFF;}
	.st17{fill:#F1F1F2;}
	.st18{fill:#EBD342;}
	.st19{opacity:0.2;fill:#595A5B;}
	.st20{opacity:0.3;fill:#595A5B;}
	.st21{opacity:0.1;fill:#070308;}
	.st22{fill:#070308;}
	.st23{opacity:0.7;fill:#272424;}
	.st24{opacity:0.3;fill:#272424;}
</style>
<g id="Batman">
	<g id="chest_1_">
		<polygon class="st0" points="97,241.2 0,241.2 0,153.9 96.9,153.9 		"/>
		<polygon class="st1" points="48.4,153.9 0,153.9 0,241.2 48.4,241.2 		"/>
	</g>
	<g id="neck_1_">
		<polygon class="st2" points="82.8,153.9 71.4,144.8 71.4,119.3 48.4,119.3 25.5,119.3 25.5,144.8 13.7,153.9 48.4,169.2 
			48.4,168.8 48.4,169.2 		"/>
		<polygon class="st2" points="25.5,144.8 13.7,153.9 25.5,153.9 		"/>
		<polygon class="st3" points="25.5,144.8 13.7,153.9 25.5,153.9 		"/>
		<polygon class="st2" points="71.4,153.9 48.5,158.5 48.4,169.2 82.8,153.9 		"/>
		<polygon class="st4" points="71.4,153.9 48.5,158.5 25.5,153.9 25.5,119.3 71.4,119.3 		"/>
		<polygon class="st2" points="48.5,158.5 25.5,153.9 25.5,119.3 48.4,119.3 		"/>
		<polygon class="st3" points="48.4,119.3 25.5,119.3 27.4,129.3 35.2,139.1 48.4,142.2 		"/>
		<polygon class="st5" points="48.4,142.2 61.6,139.1 69.3,129.8 71.4,119.3 48.4,119.3 		"/>
		<polygon class="st2" points="48.5,158.5 25.5,153.9 13.7,153.9 48.4,169.2 		"/>
		<polygon class="st6" points="48.5,158.5 25.5,153.9 13.7,153.9 48.4,169.2 		"/>
		<polygon class="st4" points="71.4,144.8 71.4,153.9 82.8,153.9 		"/>
		<polygon class="st3" points="71.4,144.8 71.4,153.9 82.8,153.9 		"/>
	</g>
	<g id="face_1_">
		<polygon class="st7" points="62.2,27.4 48.4,27.4 34.6,27.4 11.4,44.2 11.4,99.8 34.3,132.2 48.4,134.2 62.5,132.2 85.4,99.9 
			85.4,44.2 		"/>
		<linearGradient id="SVGID_1_" gradientUnits="userSpaceOnUse" x1="-41.0724" y1="79.7784" x2="83.122" y2="79.7784">
			<stop  offset="0" style="stop-color:#FFFFFF"/>
			<stop  offset="1" style="stop-color:#FFFFFF;stop-opacity:0"/>
		</linearGradient>
		<polygon class="st8" points="48.4,131.2 62.5,132.2 85.4,99.9 85.5,40.2 62.2,27.4 48.4,27.4 		"/>
		<polygon class="st9" points="41.5,97.7 48.4,100.9 55.4,97.7 		"/>
		<polygon class="st10" points="54.4,97.7 48.4,98.8 42.5,97.7 44.7,65.7 52.1,65.7 		"/>
		<linearGradient id="SVGID_2_" gradientUnits="userSpaceOnUse" x1="33.991" y1="82.2716" x2="58.372" y2="82.2716">
			<stop  offset="0" style="stop-color:#FFFFFF"/>
			<stop  offset="1" style="stop-color:#FFFFFF;stop-opacity:0"/>
		</linearGradient>
		<polygon class="st11" points="48.4,65.7 52.1,65.7 53.2,79.7 54.4,97.7 48.4,98.8 		"/>
		<linearGradient id="SVGID_3_" gradientUnits="userSpaceOnUse" x1="-58.5546" y1="-11.7957" x2="51.8884" y2="136.0859">
			<stop  offset="0" style="stop-color:#FFFFFF"/>
			<stop  offset="1" style="stop-color:#FFFFFF;stop-opacity:0"/>
		</linearGradient>
		<polygon class="st12" points="22,114.7 34.3,132.2 48.4,131.2 48.4,111.8 		"/>
		
			<linearGradient id="SVGID_4_" gradientUnits="userSpaceOnUse" x1="3570.6675" y1="87.0246" x2="3596.9612" y2="122.2315" gradientTransform="matrix(-1 0 0 1 3652.2383 0)">
			<stop  offset="0" style="stop-color:#FFFFFF"/>
			<stop  offset="1" style="stop-color:#FFFFFF;stop-opacity:0"/>
		</linearGradient>
		<polygon class="st13" points="74.9,114.7 62.5,132.2 48.4,131.2 48.4,111.8 		"/>
	</g>
	<g id="mask_1_">
		<polygon class="st4" points="62.2,27.4 48.4,27.4 34.6,27.4 11.4,44.2 11.4,99.8 22,114.7 22,97.7 41.5,97.7 48.4,98.8 55.4,97.7 
			74.9,97.7 74.9,114.7 85.4,99.9 85.4,44.2 		"/>
		<polygon class="st2" points="48.4,44.2 11.4,44.2 11.4,99.8 22,114.7 22,97.7 41.5,97.7 48.4,73.7 		"/>
		<polygon class="st4" points="11.4,44.2 34.6,27.4 48.4,27.4 48.4,44.2 		"/>
		<polygon class="st14" points="85.4,44.2 62.2,27.4 48.4,27.4 48.4,44.2 		"/>
		<polygon class="st14" points="48.4,98.8 48.4,73.7 55.4,97.7 		"/>
		<g>
			<polygon class="st4" points="11.4,44.2 11.4,0 23.6,35.3 			"/>
			<polygon class="st2" points="11.4,44.2 11.4,0 17.5,39.8 			"/>
		</g>
		<g>
			<polygon class="st2" points="85.5,44.2 85.5,0 73.2,35.3 			"/>
			<polygon class="st14" points="85.5,44.2 85.5,0 79.3,39.8 			"/>
		</g>
	</g>
	<g id="eyes_1_">
		<polygon class="st15" points="18.7,72.2 42.3,72.2 45.4,75.2 40.4,78.4 22,78.4 		"/>
		<polygon class="st2" points="78.1,72.2 54.5,72.2 51.4,75.2 56.4,78.4 74.8,78.4 		"/>
		<polygon class="st16" points="74.5,72.2 56.5,72.2 58.5,75.1 72.4,75.1 		"/>
		<polygon class="st17" points="22,72.2 40,72.2 38,75.1 24.2,75.1 		"/>
	</g>
	<g id="symbol">
		<polygon class="st18" points="74.5,194.8 60.2,188.1 48.4,188.1 36.6,188.1 22.4,194.8 18.2,200.8 18.2,209.5 22.3,215.7 
			36.6,221.8 48.4,221.8 60.2,221.8 74.5,215.7 78.6,209.5 78.6,200.8 		"/>
		<polygon class="st19" points="48.4,188.1 36.6,188.1 22.4,194.8 18.2,200.8 18.2,209.5 22.3,215.7 36.6,221.8 48.4,221.8 		"/>
		<polygon class="st20" points="18.2,205.1 18.2,209.5 22.3,215.7 36.6,221.8 48.4,221.8 48.4,205.1 		"/>
		<polygon class="st20" points="78.6,205.1 78.6,209.5 74.5,215.7 60.2,221.8 48.4,221.8 48.4,205.1 		"/>
		<polygon class="st15" points="72.3,196.3 63,192.3 65,194.1 65,195.8 62.8,197.4 57.8,198.1 51.5,196.9 50.5,191.2 49.5,193.2 
			48.2,193 48.2,193 48.2,193 48.2,193 48.2,193 47,193.2 46,191.2 45,196.9 38.7,198.1 33.7,197.4 31.5,195.8 31.4,194.1 
			33.5,192.3 24.2,196.3 20.3,201.2 20.3,205.1 20.3,208.9 24.2,213.9 24.2,211.8 25.7,210.1 29.3,209.4 32.5,211.6 34.4,214.6 
			36,211.9 38.4,210.6 44.4,212.2 48.2,219.5 48.2,219.5 48.2,219.5 48.2,219.5 48.2,219.5 52,212.2 58.1,210.6 60.5,211.9 
			62.1,214.6 64,211.6 67.2,209.4 70.8,210.1 72.3,211.8 72.3,213.9 76.2,208.9 76.2,205.1 76.2,201.2 		"/>
		<polygon class="st21" points="48.2,193 47,193.2 46,191.2 45,196.9 38.7,198.1 33.7,197.4 31.5,195.8 31.4,194.1 33.5,192.3 
			24.2,196.3 20.3,201.2 20.3,205.1 20.3,208.9 24.2,213.9 24.2,211.8 25.7,210.1 29.3,209.4 32.5,211.6 34.4,214.6 36,211.9 
			38.4,210.6 44.4,212.2 48.2,219.5 48.2,205.2 		"/>
		<polygon class="st22" points="20.3,205.1 20.3,208.9 24.2,213.9 24.2,211.8 25.7,210.1 29.3,209.4 32.5,211.6 34.4,214.6 
			36,211.9 38.4,210.6 44.4,212.2 48.2,219.5 48.2,205.1 		"/>
	</g>
	<g id="cape">
		<polygon class="st4" points="48.4,169.2 5.3,199.1 0,199.1 0,153.9 13.7,153.9 		"/>
		<polygon class="st23" points="48.4,169.2 5.3,199.1 0,220.4 0,153.9 13.7,153.9 		"/>
		<polygon class="st23" points="48.4,169.2 5.3,199.1 0,220.4 0,169.2 		"/>
		<polygon class="st15" points="48.4,169.2 91.6,199.1 97,220.4 96.9,153.9 82.8,153.9 		"/>
		<polygon class="st4" points="48.4,169.2 91.6,199.1 96.4,199.1 97,153.9 82.8,153.9 		"/>
		<polygon class="st2" points="48.4,169.2 91.6,199.1 97,199.1 97,169.2 80.1,169.2 		"/>
		<polygon class="st24" points="48.4,169.2 5.3,199.1 0,220.4 0,241.2 4.5,241.2 10,200.4 		"/>
		<polygon class="st24" points="48.5,169.2 91.6,199.1 97,220.4 97,241.2 92.4,241.2 86.9,200.4 		"/>
	</g>
</g>
</svg>
