<?xml version="1.0" encoding="utf-8"?>
<!-- Generator: Adobe Illustrator 22.0.1, SVG Export Plug-In . SVG Version: 6.00 Build 0)  -->
<svg version="1.1" id="Capa_1" xmlns="http://www.w3.org/2000/svg" xmlns:xlink="http://www.w3.org/1999/xlink" x="0px" y="0px"
	 viewBox="0 0 97.1 213.9" style="enable-background:new 0 0 97.1 213.9;" xml:space="preserve">
<style type="text/css">
	.st0{opacity:0.4;fill:#527BB0;}
	.st1{fill:#355784;}
	.st2{fill:#3C6493;}
	.st3{opacity:0.4;fill:#272424;}
	.st4{opacity:0.6;fill:#233C50;}
	.st5{fill:#436EA1;}
	.st6{fill:#6D6D6F;}
	.st7{fill:#2B4C6F;}
	.st8{opacity:0.2;fill:#272424;}
	.st9{fill:#233C50;}
	.st10{opacity:0.5;fill:#233C50;}
	.st11{opacity:0.6;fill:#2B4C6F;}
	.st12{fill:#E0C3AD;}
	.st13{fill:url(#SVGID_1_);}
	.st14{fill:#BE9E89;}
	.st15{fill:#CDA9A1;}
	.st16{fill:url(#SVGID_2_);}
	.st17{fill:url(#SVGID_3_);}
	.st18{fill:url(#SVGID_4_);}
	.st19{opacity:0.2;fill:#434243;}
	.st20{fill:#EBD342;}
	.st21{opacity:0.2;fill:#C75A33;}
	.st22{opacity:0.5;fill:#FFFFFF;}
	.st23{opacity:0.2;}
	.st24{fill:#C75A33;}
	.st25{fill:#C3443A;}
	.st26{opacity:0.5;fill:#9A2830;}
</style>
<g>
	<g id="chest_4_">
		<polygon class="st0" points="48.5,126.5 0,126.5 0,213.9 48.5,213.9 		"/>
		<rect y="126.5" class="st1" width="97" height="87.3"/>
		<rect y="126.5" class="st2" width="97" height="51.4"/>
		<rect y="126.5" class="st3" width="48.5" height="87.3"/>
	</g>
	<g id="neck_4_">
		<polygon class="st1" points="82.8,126.5 66,118.5 66,106.3 66,96.4 66,95.2 48.5,95.2 31.1,95.2 31.1,96.4 31.1,106.3 31.1,118.5 
			13.9,126.5 48.5,141.8 48.5,141.4 48.5,141.8 		"/>
		<polygon class="st4" points="31.1,118.5 13.9,126.5 31.1,126.5 		"/>
		<polygon class="st5" points="66,126.5 48.5,133.7 48.5,141.8 82.8,126.5 		"/>
		<polygon class="st6" points="66,126.5 48.5,133.7 31.1,126.5 31.1,95.2 66,95.2 		"/>
		<polygon class="st1" points="66,126.5 48.5,133.7 31.1,126.5 31.1,95.2 66,95.2 		"/>
		<polygon class="st7" points="48.5,133.7 31.1,126.5 31.1,95.2 48.5,95.2 		"/>
		<polygon class="st8" points="48.5,133.7 31.1,126.5 31.1,95.2 48.5,95.2 		"/>
		<polygon class="st9" points="48.5,98.4 31.1,98.4 31.1,99.8 35.3,110.8 48.5,113.8 		"/>
		<polygon class="st10" points="48.5,113.8 61.7,110.8 65.7,100.2 66,98.4 48.5,98.4 		"/>
		<polygon class="st1" points="48.5,133.7 31.1,126.5 13.9,126.5 48.5,141.8 		"/>
		<polygon class="st11" points="66,118.5 66,126.5 82.8,126.5 		"/>
	</g>
	<g id="face_4_">
		<polygon class="st12" points="60.9,0 48.5,0 36.1,0 15.2,20.3 15.2,76.5 35.9,106.8 48.5,106.8 61.2,106.8 81.8,76.5 81.8,20.3 		
			"/>
		<linearGradient id="SVGID_1_" gradientUnits="userSpaceOnUse" x1="-31.9325" y1="53.3974" x2="79.7051" y2="53.3974">
			<stop  offset="0" style="stop-color:#FFFFFF"/>
			<stop  offset="1" style="stop-color:#FFFFFF;stop-opacity:0"/>
		</linearGradient>
		<polygon class="st13" points="48.5,106.8 61.2,106.8 81.8,76.5 81.8,20.3 60.9,0 48.5,0 		"/>
		<polygon class="st14" points="42.5,72.3 48.5,75.5 54.5,72.3 		"/>
		<polygon class="st15" points="54.5,72.3 48.5,73.5 42.5,72.3 44.8,44.3 52.2,44.3 		"/>
		<linearGradient id="SVGID_2_" gradientUnits="userSpaceOnUse" x1="34.0834" y1="58.8907" x2="58.466" y2="58.8907">
			<stop  offset="0" style="stop-color:#FFFFFF"/>
			<stop  offset="1" style="stop-color:#FFFFFF;stop-opacity:0"/>
		</linearGradient>
		<polygon class="st16" points="48.5,44.3 52.2,44.3 53.3,58.3 54.5,72.3 48.5,73.5 		"/>
		<linearGradient id="SVGID_3_" gradientUnits="userSpaceOnUse" x1="47.2179" y1="30.4075" x2="39.2824" y2="96.2138">
			<stop  offset="0" style="stop-color:#FFFFFF"/>
			<stop  offset="1" style="stop-color:#FFFFFF;stop-opacity:0"/>
		</linearGradient>
		<polygon class="st17" points="30.2,84.2 34.4,106.8 48.5,106.8 48.4,83.2 		"/>
		
			<linearGradient id="SVGID_4_" gradientUnits="userSpaceOnUse" x1="3580.5464" y1="61.7509" x2="3606.7954" y2="96.8979" gradientTransform="matrix(-1 0 0 1 3660.8831 0)">
			<stop  offset="0" style="stop-color:#FFFFFF"/>
			<stop  offset="1" style="stop-color:#FFFFFF;stop-opacity:0"/>
		</linearGradient>
		<polygon class="st18" points="66.8,84.2 62.6,106.8 48.5,106.8 48.4,83.2 		"/>
	</g>
	<g id="mask_2_">
		<polygon class="st1" points="81.8,20.3 60.9,0 48.5,0 36.1,0 15.2,20.3 15.2,76.5 22.3,86.8 22.3,67.6 29.6,60.3 43.2,60.3 
			48.5,57 53.8,60.3 53.8,60.3 67.4,60.3 74.8,67.7 74.8,86.8 81.8,76.5 81.8,20.3 		"/>
		<polygon class="st1" points="15.2,20.3 36.1,0 42.3,0 48.5,0 48.5,12.2 48.5,20.3 31.8,20.3 		"/>
		<polygon class="st2" points="81.8,20.3 60.9,0 54.7,0 48.5,0 48.5,12.2 48.5,20.3 65.2,20.3 		"/>
		<polygon class="st7" points="48.5,20.3 15.2,20.3 15.2,76.5 22.3,86.8 22.3,67.6 29.6,60.3 43.2,60.3 48.5,57 		"/>
	</g>
	<g id="visor">
		<path class="st19" d="M72.5,45.2H24.6c-4.4,0-8,3.6-8,8v0.4c0,4.4,3.6,8,8,8h19.1l4.8-4.6l5.1,4.6h18.9c4.4,0,8-3.6,8-8v-0.4
			C80.5,48.8,76.9,45.2,72.5,45.2z"/>
		<path class="st20" d="M72.3,44H24.4c-4.4,0-8,3.6-8,8v0.4c0,4.4,3.6,8,8,8h19.1l5-3.3l5,3.3h18.9c4.4,0,8-3.6,8-8V52
			C80.3,47.5,76.8,44,72.3,44z"/>
		<path class="st21" d="M48.5,44H24.4c-4.4,0-8,3.6-8,8v0.4c0,4.4,3.6,8,8,8h19.1l5-3.3L48.5,44z"/>
		<g>
			<path class="st22" d="M72.8,46.8c2.3,0,4.4,0.8,5.8,2h0.2c-1.2-2.4-3.9-4.1-7.1-4.1H25.1c-3.2,0-6,1.7-7.1,4.1h0.1
				c1.5-1.2,3.5-2,5.8-2H72.8z"/>
		</g>
		<g class="st23">
			<g>
				<path class="st24" d="M24.9,59.6h18l3.1-2H23.7c-2.3,0-4.4-0.8-5.8-2h-0.1C18.9,58,21.7,59.6,24.9,59.6z"/>
				<path class="st24" d="M78.6,55.6h-0.2c-1.5,1.2-3.5,2-5.8,2H50.8l3.1,2h17.6C74.7,59.6,77.4,58,78.6,55.6z"/>
			</g>
			<g>
				<path class="st21" d="M24.9,59.6h18l3.1-2H23.7c-2.3,0-4.4-0.8-5.8-2h-0.1C18.9,58,21.7,59.6,24.9,59.6z"/>
				<path class="st21" d="M78.6,55.6h-0.2c-1.5,1.2-3.5,2-5.8,2H50.8l3.1,2h17.6C74.7,59.6,77.4,58,78.6,55.6z"/>
			</g>
		</g>
		<rect x="22.1" y="50.3" class="st25" width="52.1" height="3.6"/>
	</g>
	<g id="ears">
		<polygon class="st9" points="15.2,37.7 11.5,41.4 11.5,62.6 15.2,70.3 		"/>
		<polygon class="st7" points="81.8,37.7 85.5,41.4 85.5,62.6 81.8,70.3 		"/>
	</g>
	<g>
		<path class="st3" d="M97.1,200.3c-1.4,0.3-2.8,0.4-4.2,0.4c-11.5,0-20.9-9.4-20.9-20.9c0-11.5,9.4-20.9,20.9-20.9
			c1.4,0,2.8,0.1,4.1,0.4L97.1,200.3z"/>
		<path class="st25" d="M97.1,198.3c-1.4,0.3-2.8,0.4-4.2,0.4c-11.5,0-20.9-9.4-20.9-20.9c0-11.5,9.4-20.9,20.9-20.9
			c1.4,0,2.8,0.1,4.1,0.4L97.1,198.3z"/>
		<path class="st26" d="M97,186.4l0-6l-1.3-1.5l1.3-1.5v-6l-4,4.4l-9.8-10.9c2.7-1.9,6.1-3.1,9.7-3.1c1.4,0,2.8,0.2,4.1,0.5l0-4.1
			c-1.3-0.3-2.7-0.4-4.1-0.4c-11.3,0-20.6,9.1-20.8,20.4c0.3,11.3,9.5,20.4,20.8,20.4c1.4,0,2.8-0.1,4.2-0.4l-0.1-3.1
			c-1.3,0.3-2.7,0.5-4.1,0.5c-3.6,0-6.9-1.1-9.6-3l9.7-10.9L97,186.4z M80.3,190.1c-2.7-3-4.3-6.9-4.3-11.2c0-4.3,1.6-8.2,4.2-11.1
			l10.1,11.2L80.3,190.1z"/>
		<path class="st20" d="M97,161.5c-1.3-0.3-2.7-0.5-4.1-0.5c-9.3,0-16.9,7.6-16.9,16.9c0,9.3,7.6,16.9,16.9,16.9
			c1.4,0,2.8-0.2,4.1-0.5l0.1,4.1c-1.4,0.3-2.8,0.4-4.2,0.4c-11.5,0-20.9-9.4-20.9-20.9c0-11.5,9.4-20.9,20.9-20.9
			c1.4,0,2.8,0.1,4.1,0.4L97,161.5z"/>
		<polygon class="st20" points="97,176.5 97,170.5 93,175 82.3,163.2 79.4,165.8 90.3,177.9 78.9,190.7 81.8,193.4 93,180.9 
			97.1,185.4 97.1,179.5 95.7,177.9 		"/>
		<path class="st21" d="M76,177.9c0-4.3,1.6-8.2,4.2-11.1l10.1,11.2l-10,11.2C77.6,186.1,76,182.2,76,177.9z M92.9,194.8
			c-3.6,0-6.9-1.1-9.6-3l9.7-10.9l0-6l-9.8-10.9c2.7-1.9,6.1-3.1,9.7-3.1v-4c-11.5,0-20.9,9.4-20.9,20.9c0,11.5,9.4,20.9,20.9,20.9
			V194.8z"/>
		<path class="st21" d="M97,179.4l-1.3-1.5l0,0h-5.5l0.1,0.1l-10,11.2c-2.7-3-4.3-6.9-4.3-11.2h-4c0,11.5,9.4,20.9,20.9,20.9
			c1.4,0,2.8-0.1,4.2-0.4 M97.1,194.2c-1.3,0.3-2.8,0.5-4.2,0.5c-3.6,0-6.9-1.1-9.6-3l9.7-10.9l4.1,4.5L97.1,194.2z"/>
	</g>
</g>
</svg>
