<?xml version="1.0" encoding="utf-8"?>
<!-- Generator: Adobe Illustrator 22.0.1, SVG Export Plug-In . SVG Version: 6.00 Build 0)  -->
<svg version="1.1" id="Capa_1" xmlns="http://www.w3.org/2000/svg" xmlns:xlink="http://www.w3.org/1999/xlink" x="0px" y="0px"
	 viewBox="0 0 97 213.7" style="enable-background:new 0 0 97 213.7;" xml:space="preserve">
<style type="text/css">
	.st0{fill:#8B2632;}
	.st1{fill:#9A2830;}
	.st2{opacity:0.9;fill:#F1F1F2;}
	.st3{opacity:0.5;fill:#671726;}
	.st4{fill:#C3443A;}
	.st5{opacity:0.8;fill:#671726;}
	.st6{fill:#A4394C;}
	.st7{fill:#E0C3AD;}
	.st8{fill:url(#SVGID_1_);}
	.st9{fill:#BE9E89;}
	.st10{fill:#CDA9A1;}
	.st11{fill:url(#SVGID_2_);}
	.st12{fill:url(#SVGID_3_);}
	.st13{fill:url(#SVGID_4_);}
	.st14{fill:#D3B19B;}
	.st15{opacity:0.5;fill:#561224;}
	.st16{fill:#FFFFFF;}
	.st17{opacity:0.3;fill:#561224;}
	.st18{opacity:0.5;fill:#C3443A;}
	.st19{fill:#671726;}
	.st20{opacity:0.2;fill:#561224;}
</style>
<g id="Daredevil">
	<g id="chest_15_">
		<rect y="126.4" class="st0" width="97" height="87.3"/>
		<rect y="126.4" class="st1" width="97" height="52"/>
		<g id="symbol_6_">
			<path class="st2" d="M73.3,173.4c-1.3-2.5-3.3-4.4-5.9-5.8c-1.4-0.8-3.1-1.3-5.1-1.7c-0.3-2-0.9-3.8-1.7-5.5
				c-1.3-2.5-3.3-4.4-5.9-5.8c-2.6-1.4-6.3-2.2-11-2.2c-1.5,0-4.5,0.1-8.8,0.3l-5.2,0.3v1.1h0.9c1.6,0,2.7,0.1,3.1,0.4
				c0.5,0.3,0.8,0.8,0.9,1.5c0.1,0.7,0.2,2.4,0.2,4.9v15.3c0,2.7-0.1,4.3-0.2,5.1c-0.1,0.7-0.5,1.3-1,1.6c-0.5,0.3-1.5,0.5-2.8,0.5
				h-1.3v1.1h14.1c1.5,0,2.8,0,3.9-0.1v4.8c0,2.7-0.1,4.3-0.2,5.1c-0.1,0.7-0.5,1.3-1,1.6c-0.5,0.3-1.5,0.5-2.8,0.5h-1.3v1.1h14.1
				c2.6,0,4.7-0.1,6.1-0.2c1.5-0.2,3-0.6,4.6-1.2c1.6-0.7,3-1.6,4.3-2.9c1.2-1.3,2.2-2.9,2.9-4.8c0.7-1.9,1.1-4.1,1.1-6.4
				C75.2,178.7,74.5,175.8,73.3,173.4z M57.4,169.3c0,3.5-0.6,6.3-1.8,8.5c-1,1.8-2.2,3.2-3.6,4v-15.2c1.2-0.1,2.4-0.1,3.6-0.1
				c0.6,0,1.1,0,1.6,0C57.4,167.4,57.4,168.3,57.4,169.3z M44.4,183.4c-1.9,0-3.1-0.2-3.7-0.6c-0.6-0.4-0.9-1-1.1-1.9
				c-0.1-0.9-0.2-2.9-0.2-6.1v-21.2c1.2-0.1,2.4-0.1,3.6-0.1c2.5,0,4.5,0.2,6.1,0.7c1.6,0.5,3,1.4,4.3,2.7c1.3,1.3,2.3,3,3,5.1
				c0.3,1,0.6,2.2,0.8,3.3c-0.3,0-0.6,0-0.8,0c-1.5,0-4.5,0.1-8.8,0.3l-5.2,0.3v1.1h0.9c1.6,0,2.7,0.1,3.1,0.4
				c0.5,0.3,0.8,0.8,0.9,1.5c0.1,0.7,0.2,2.4,0.2,4.9v9.3C46.5,183.3,45.5,183.4,44.4,183.4z M68.3,190.8c-1.2,2.2-2.7,3.7-4.5,4.5
				c-1.8,0.8-4.1,1.1-6.8,1.1c-1.9,0-3.1-0.2-3.7-0.6c-0.6-0.4-0.9-1-1.1-1.9c-0.1-0.9-0.2-2.9-0.2-6.1v-4.1
				c0.7-0.2,1.5-0.5,2.2-0.8c1.6-0.7,3-1.6,4.3-2.9c1.2-1.3,2.2-2.9,2.9-4.8c0.7-1.9,1.1-4.1,1.1-6.4c0-0.5,0-1,0-1.4
				c1.3,0.5,2.5,1.3,3.6,2.4c1.3,1.3,2.3,3,3,5.1c0.7,2.1,1,4.5,1,7.2C70.1,185.7,69.5,188.5,68.3,190.8z"/>
		</g>
		<polygon class="st3" points="48.5,126.4 0,126.4 0,213.7 48.5,213.7 		"/>
	</g>
	<g id="neck_15_">
		<polygon class="st4" points="94.8,126.3 72.1,118.3 72.1,106 72.1,87.8 72.1,86.6 48.6,86.6 25.1,86.6 25.1,87.8 25.1,106 
			25.1,118.3 1.8,126.3 48.6,141.5 48.6,141.2 48.6,141.5 		"/>
		<polygon class="st5" points="25.1,118.3 1.8,126.3 25.1,126.3 		"/>
		<polygon class="st6" points="72.1,126.3 48.5,133.4 48.6,141.5 94.8,126.3 		"/>
		<polygon class="st1" points="72.1,126.3 48.6,133.4 25.1,126.3 25.1,86.6 72.1,86.6 		"/>
		<polygon class="st3" points="48.6,133.4 25.1,126.3 25.1,86.6 48.6,86.6 		"/>
		<polygon class="st3" points="48.6,89.8 25.1,89.8 25.1,99.5 30.8,110.5 48.5,113.5 		"/>
		<polygon class="st0" points="48.5,113.5 66.3,110.5 71.7,99.9 72.1,89.8 48.6,89.8 		"/>
		<polygon class="st1" points="48.6,133.4 25.1,126.3 1.8,126.3 48.6,141.5 		"/>
		<polygon class="st0" points="72.1,118.3 72.1,126.3 94.8,126.3 		"/>
	</g>
	<g id="face_14_">
		<polygon class="st7" points="60.9,0 48.5,0 36.1,0 15.2,24.7 15.2,76.3 35.9,106.7 48.5,106.7 61.2,106.7 81.8,76.3 81.8,24.7 		
			"/>
		<linearGradient id="SVGID_1_" gradientUnits="userSpaceOnUse" x1="-31.9328" y1="53.3252" x2="79.7051" y2="53.3252">
			<stop  offset="0" style="stop-color:#FFFFFF"/>
			<stop  offset="1" style="stop-color:#FFFFFF;stop-opacity:0"/>
		</linearGradient>
		<polygon class="st8" points="48.5,106.7 61.2,106.7 81.8,76.3 81.8,24.7 60.9,0 48.5,0 		"/>
		<g id="nose_6_">
			<polygon class="st9" points="42.5,78 48.5,81.2 54.5,78 			"/>
			<polygon class="st10" points="54.5,78 48.5,79.1 42.5,78 44.8,50 52.2,50 			"/>
			<linearGradient id="SVGID_2_" gradientUnits="userSpaceOnUse" x1="34.0834" y1="64.5781" x2="58.466" y2="64.5781">
				<stop  offset="0" style="stop-color:#FFFFFF"/>
				<stop  offset="1" style="stop-color:#FFFFFF;stop-opacity:0"/>
			</linearGradient>
			<polygon class="st11" points="48.5,50 52.2,50 53.3,64 54.5,78 48.5,79.1 			"/>
		</g>
		<linearGradient id="SVGID_3_" gradientUnits="userSpaceOnUse" x1="46.1527" y1="45.6305" x2="40.0163" y2="96.5177">
			<stop  offset="0" style="stop-color:#FFFFFF"/>
			<stop  offset="1" style="stop-color:#FFFFFF;stop-opacity:0"/>
		</linearGradient>
		<polygon class="st12" points="31.8,87.6 35.9,104.7 48.5,103.7 48.5,86.6 		"/>
		
			<linearGradient id="SVGID_4_" gradientUnits="userSpaceOnUse" x1="3591.7908" y1="68.866" x2="3612.5618" y2="96.6779" gradientTransform="matrix(-1 0 0 1 3666.6135 0)">
			<stop  offset="0" style="stop-color:#FFFFFF"/>
			<stop  offset="1" style="stop-color:#FFFFFF;stop-opacity:0"/>
		</linearGradient>
		<polygon class="st13" points="65.5,87.6 61.2,104.7 48.5,103.7 48.5,86.6 		"/>
		<polygon class="st14" points="35.9,104.7 48.5,103.7 61.2,104.7 61.2,106.7 35.9,106.7 		"/>
	</g>
	<g id="mask_9_">
		<polygon class="st1" points="81.8,76.3 81.8,24.7 61.9,0 48.5,0 48.5,0 35.1,0 15.2,24.7 15.2,76.3 19.4,82.5 18.6,65.9 
			48.5,61.8 48.5,31.7 48.5,61.8 78.4,65.9 77.6,82.5 		"/>
		<path class="st3" d="M48.5,0H35.1L15.2,24.7l0,51.6l4.2,6.2l-0.8-16.6l29.9-4.1"/>
		<polygon class="st1" points="15.2,24.7 22.5,8.2 35.1,0 48.5,0 48.5,24.7 		"/>
		<polygon class="st6" points="81.8,24.7 74.6,8.2 61.9,0 48.5,0 48.5,24.7 		"/>
		<g>
			<polygon class="st15" points="40,58.9 28,58.9 18.9,53.9 46.6,53.9 43.5,56.5 			"/>
			<polygon class="st16" points="24.7,55.3 41.3,55.7 34.5,58.1 30,57.3 			"/>
		</g>
		<g>
			<polygon class="st15" points="53.5,56.5 50.4,53.9 78.1,53.9 69,58.9 57,58.9 			"/>
			<polygon class="st16" points="72.4,55.3 55.8,55.7 62.6,58.1 67.1,57.3 			"/>
		</g>
		<g id="horns">
			<g>
				<polygon class="st17" points="24.4,24.8 24.4,30.8 20.5,33.3 17.5,31.4 17.5,25.2 				"/>
				<polygon class="st6" points="20,29.3 15.4,27.7 12.6,22.3 12.6,19.4 18.1,21.4 21.5,21.6 24.4,24.8 23.6,28.2 				"/>
				<polygon class="st18" points="18.5,24.1 15.6,22.6 12.6,19.4 18.5,22.5 22.2,22.3 23.4,23.8 22.1,24.4 				"/>
				<polygon class="st19" points="20,29.3 15.4,27.7 12.6,22.3 12.6,19.4 14.8,24 20.2,26.2 24.4,24.8 23.6,28.2 				"/>
			</g>
			<g>
				<polygon class="st20" points="72.6,24.8 72.6,30.8 76.5,33.3 79.5,31.4 79.5,25.2 				"/>
				<polygon class="st6" points="77,29.3 81.6,27.7 84.4,22.3 84.4,19.4 78.9,21.4 75.5,21.6 72.6,24.8 73.4,28.2 				"/>
				<polygon class="st18" points="82.9,21.6 84.4,19.4 78.9,21.4 75.5,21.6 74.5,22.7 78.5,22.9 				"/>
				<polygon class="st3" points="77,29.3 81.6,27.7 84.4,22.3 84.4,19.4 82.2,24 76.8,26.2 72.6,24.8 73.4,28.2 				"/>
			</g>
		</g>
	</g>
</g>
</svg>
