<svg width="97" height="241.2" xmlns="http://www.w3.org/2000/svg">
 <style type="text/css">.st0{fill:#000000;}
	.st1{opacity:0.4;fill:#000000;}
	.st2{fill:#000000;}
	.st3{opacity:0.5;fill:#000000;}
	.st4{fill:#000000;}
	.st5{opacity:0.5;fill:#000000;}
	.st6{opacity:0.2;fill:#000000;}
	.st7{fill:#000000;}
	.st8{fill:url(#SVGID_1_);}
	.st9{fill:#000000;}
	.st10{fill:#000000;}
	.st11{fill:url(#SVGID_2_);}
	.st12{fill:url(#SVGID_3_);}
	.st13{fill:url(#SVGID_4_);}
	.st14{fill:#000000;}
	.st15{fill:#000000;}
	.st16{fill:#000000;}
	.st17{fill:#000000;}
	.st18{fill:#000000;}
	.st19{opacity:0.2;fill:#000000;}
	.st20{opacity:0.3;fill:#000000;}
	.st21{opacity:0.1;fill:#000000;}
	.st22{fill:#000000;}
	.st23{opacity:0.7;fill:#000000;}
	.st24{opacity:0.3;fill:#000000;}</style>

 <g>
  <title>background</title>
  <rect fill="none" id="canvas_background" height="602" width="802" y="-1" x="-1"/>
 </g>
 <g>
  <title>Layer 1</title>
  <g id="Batman">
   <g id="chest_1_">
    <polygon id="svg_1" points="97,241.1999995112419 0,241.1999995112419 0,153.8999964594841 96.9000015258789,153.8999964594841 " class="st0"/>
    <polygon id="svg_2" points="48.400001525878906,153.8999964594841 0,153.8999964594841 0,241.1999995112419 48.400001525878906,241.1999995112419 " class="st1"/>
   </g>
   <g id="neck_1_">
    <polygon id="svg_3" points="82.80000305175781,153.8999964594841 71.4000015258789,144.80000561475754 71.4000015258789,119.30000561475754 48.400001525878906,119.30000561475754 25.5,119.30000561475754 25.5,144.80000561475754 13.699999809265137,153.8999964594841 48.400001525878906,169.1999995112419 48.400001525878906,168.80000561475754 48.400001525878906,169.1999995112419 " class="st2"/>
    <polygon id="svg_4" points="25.5,144.80000561475754 13.699999809265137,153.8999964594841 25.5,153.8999964594841 " class="st2"/>
    <polygon id="svg_5" points="25.5,144.80000561475754 13.699999809265137,153.8999964594841 25.5,153.8999964594841 " class="st3"/>
    <polygon id="svg_6" points="71.4000015258789,153.8999964594841 48.5,158.50000256299973 48.400001525878906,169.1999995112419 82.80000305175781,153.8999964594841 " class="st2"/>
    <polygon id="svg_7" points="71.4000015258789,153.8999964594841 48.5,158.50000256299973 25.5,153.8999964594841 25.5,119.30000561475754 71.4000015258789,119.30000561475754 " class="st4"/>
    <polygon id="svg_8" points="48.5,158.50000256299973 25.5,153.8999964594841 25.5,119.30000561475754 48.400001525878906,119.30000561475754 " class="st2"/>
    <polygon id="svg_9" points="48.400001525878906,119.30000561475754 25.5,119.30000561475754 27.399999618530273,129.30000561475754 35.20000076293945,139.10000866651535 48.400001525878906,142.1999995112419 " class="st3"/>
    <polygon id="svg_10" points="48.400001525878906,142.1999995112419 61.599998474121094,139.10000866651535 69.30000305175781,129.80000561475754 71.4000015258789,119.30000561475754 48.400001525878906,119.30000561475754 " class="st5"/>
    <polygon id="svg_11" points="48.5,158.50000256299973 25.5,153.8999964594841 13.699999809265137,153.8999964594841 48.400001525878906,169.1999995112419 " class="st2"/>
    <polygon id="svg_12" points="48.5,158.50000256299973 25.5,153.8999964594841 13.699999809265137,153.8999964594841 48.400001525878906,169.1999995112419 " class="st6"/>
    <polygon id="svg_13" points="71.4000015258789,144.80000561475754 71.4000015258789,153.8999964594841 82.80000305175781,153.8999964594841 " class="st4"/>
    <polygon id="svg_14" points="71.4000015258789,144.80000561475754 71.4000015258789,153.8999964594841 82.80000305175781,153.8999964594841 " class="st3"/>
   </g>
   <g id="face_1_">
    <polygon id="svg_15" points="62.20000076293945,27.120669662952423 48.400001525878906,27.120669662952423 34.599998474121094,27.120669662952423 11.399999618530273,43.9206708073616 11.399999618530273,99.52067309617996 34.29999923706055,131.92066699266434 48.400001525878906,133.92066699266434 62.5,131.92066699266434 85.4000015258789,99.62067157030106 85.4000015258789,43.9206708073616 " class="st7"/>
    <polygon id="svg_16" points="48.400001525878906,131.1999995112419 62.5,132.1999995112419 85.4000015258789,99.90000408887863 85.5,40.19999951124191 62.20000076293945,27.400000274181366 48.400001525878906,27.400000274181366 " class="st8"/>
    <polygon id="svg_17" points="41.5,97.69999951124191 48.400001525878906,100.90000408887863 55.400001525878906,97.69999951124191 " class="st9"/>
    <polygon id="svg_18" points="54.400001525878906,97.69999951124191 48.400001525878906,98.80000561475754 42.5,97.69999951124191 44.70000076293945,65.69999951124191 52.099998474121094,65.69999951124191 " class="st10"/>
    <polygon id="svg_19" points="48.400001525878906,65.69999951124191 52.099998474121094,65.69999951124191 53.20000076293945,79.69999951124191 54.400001525878906,97.69999951124191 48.400001525878906,98.80000561475754 " class="st11"/>
    <polygon id="svg_20" points="22,114.69999951124191 34.29999923706055,132.1999995112419 48.400001525878906,131.1999995112419 48.400001525878906,111.80000561475754 " class="st12"/>
    <polygon id="svg_21" points="74.9000015258789,114.69999951124191 62.5,132.1999995112419 48.400001525878906,131.1999995112419 48.400001525878906,111.80000561475754 " class="st13"/>
   </g>
   <g id="mask_1_">
    <polygon id="svg_22" points="62.20000076293945,27.679329574108124 48.400001525878906,27.679329574108124 34.599998474121094,27.679329574108124 11.399999618530273,44.4793307185173 11.399999618530273,100.07933300733566 22,114.97932690382004 22,97.97932690382004 41.5,97.97932690382004 48.400001525878906,99.07933300733566 55.400001525878906,97.97932690382004 74.9000015258789,97.97932690382004 74.9000015258789,114.97932690382004 85.4000015258789,100.17933148145676 85.4000015258789,44.4793307185173 " class="st4"/>
    <polygon id="svg_23" points="48.400001525878906,44.19999951124191 11.399999618530273,44.19999951124191 11.399999618530273,99.80000561475754 22,114.69999951124191 22,97.69999951124191 41.5,97.69999951124191 48.400001525878906,73.69999951124191 " class="st2"/>
    <polygon id="svg_24" points="11.399999618530273,44.19999951124191 34.599998474121094,27.400000274181366 48.400001525878906,27.400000274181366 48.400001525878906,44.19999951124191 " class="st4"/>
    <polygon id="svg_25" points="85.4000015258789,44.19999951124191 62.20000076293945,27.400000274181366 48.400001525878906,27.400000274181366 48.400001525878906,44.19999951124191 " class="st14"/>
    <polygon stroke="null" id="svg_26" points="43.09273461774865,101.0346450805664 43.09273461774865,73.69999694824219 55.6793327331543,99.83670043945312 " class="st14"/>
    <g id="svg_27">
     <polygon id="svg_28" points="11.399999618530273,70.73634594678879 11.399999618530273,26.536347091197968 23.600000381469727,61.83634823560715 " class="st4"/>
    </g>
    <g id="svg_30">
     <polygon stroke="null" id="svg_32" points="85.49999743700027,70.45701599121094 85.49999743700027,26.257017135620117 74.55138903856277,66.05702209472656 " class="st14"/>
    </g>
   </g>
   <g id="eyes_1_">
    <polygon id="svg_33" points="18.700000762939453,72.19999951124191 42.29999923706055,72.19999951124191 45.400001525878906,75.19999951124191 40.400001525878906,78.40000408887863 22,78.40000408887863 " class="st15"/>
    <polygon id="svg_34" points="78.0999984741211,72.19999951124191 54.5,72.19999951124191 51.400001525878906,75.19999951124191 56.400001525878906,78.40000408887863 74.80000305175781,78.40000408887863 " class="st2"/>
    <polygon id="svg_35" points="74.5,72.19999951124191 56.5,72.19999951124191 58.5,75.10000103712082 72.4000015258789,75.10000103712082 " class="st16"/>
    <polygon id="svg_36" points="22,72.19999951124191 40,72.19999951124191 38,75.10000103712082 24.200000762939453,75.10000103712082 " class="st17"/>
   </g>
   <g id="symbol">
    <polygon id="svg_37" points="74.5,194.80000561475754 60.20000076293945,188.10000866651535 48.400001525878906,188.10000866651535 36.599998474121094,188.10000866651535 22.399999618530273,194.80000561475754 18.200000762939453,200.80000561475754 18.200000762939453,209.50000256299973 22.299999237060547,215.6999995112419 36.599998474121094,221.80000561475754 48.400001525878906,221.80000561475754 60.20000076293945,221.80000561475754 74.5,215.6999995112419 78.5999984741211,209.50000256299973 78.5999984741211,200.80000561475754 " class="st18"/>
    <polygon id="svg_38" points="48.400001525878906,188.10000866651535 36.599998474121094,188.10000866651535 22.399999618530273,194.80000561475754 18.200000762939453,200.80000561475754 18.200000762939453,209.50000256299973 22.299999237060547,215.6999995112419 36.599998474121094,221.80000561475754 48.400001525878906,221.80000561475754 " class="st19"/>
    <polygon id="svg_39" points="18.200000762939453,205.10000866651535 18.200000762939453,209.50000256299973 22.299999237060547,215.6999995112419 36.599998474121094,221.80000561475754 48.400001525878906,221.80000561475754 48.400001525878906,205.10000866651535 " class="st20"/>
    <polygon id="svg_40" points="78.5999984741211,205.10000866651535 78.5999984741211,209.50000256299973 74.5,215.6999995112419 60.20000076293945,221.80000561475754 48.400001525878906,221.80000561475754 48.400001525878906,205.10000866651535 " class="st20"/>
    <polygon id="svg_41" points="72.30000305175781,196.30000561475754 63,192.30000561475754 65,194.10000866651535 65,195.80000561475754 62.79999923706055,197.3999964594841 57.79999923706055,198.10000866651535 51.5,196.8999964594841 50.5,191.1999995112419 49.5,193.1999995112419 48.20000076293945,193.00000256299973 48.20000076293945,193.00000256299973 48.20000076293945,193.00000256299973 48.20000076293945,193.00000256299973 48.20000076293945,193.00000256299973 47,193.1999995112419 46,191.1999995112419 45,196.8999964594841 38.70000076293945,198.10000866651535 33.70000076293945,197.3999964594841 31.5,195.80000561475754 31.399999618530273,194.10000866651535 33.5,192.30000561475754 24.200000762939453,196.30000561475754 20.299999237060547,201.1999995112419 20.299999237060547,205.10000866651535 20.299999237060547,208.8999964594841 24.200000762939453,213.8999964594841 24.200000762939453,211.80000561475754 25.700000762939453,210.10000866651535 29.299999237060547,209.3999964594841 32.5,211.60000866651535 34.400001525878906,214.60000866651535 36,211.8999964594841 38.400001525878906,210.60000866651535 44.400001525878906,212.1999995112419 48.20000076293945,219.50000256299973 48.20000076293945,219.50000256299973 48.20000076293945,219.50000256299973 48.20000076293945,219.50000256299973 48.20000076293945,219.50000256299973 52,212.1999995112419 58.099998474121094,210.60000866651535 60.5,211.8999964594841 62.099998474121094,214.60000866651535 64,211.60000866651535 67.19999694824219,209.3999964594841 70.80000305175781,210.10000866651535 72.30000305175781,211.80000561475754 72.30000305175781,213.8999964594841 76.19999694824219,208.8999964594841 76.19999694824219,205.10000866651535 76.19999694824219,201.1999995112419 " class="st15"/>
    <polygon id="svg_42" points="48.20000076293945,193.00000256299973 47,193.1999995112419 46,191.1999995112419 45,196.8999964594841 38.70000076293945,198.10000866651535 33.70000076293945,197.3999964594841 31.5,195.80000561475754 31.399999618530273,194.10000866651535 33.5,192.30000561475754 24.200000762939453,196.30000561475754 20.299999237060547,201.1999995112419 20.299999237060547,205.10000866651535 20.299999237060547,208.8999964594841 24.200000762939453,213.8999964594841 24.200000762939453,211.80000561475754 25.700000762939453,210.10000866651535 29.299999237060547,209.3999964594841 32.5,211.60000866651535 34.400001525878906,214.60000866651535 36,211.8999964594841 38.400001525878906,210.60000866651535 44.400001525878906,212.1999995112419 48.20000076293945,219.50000256299973 48.20000076293945,205.1999995112419 " class="st21"/>
    <polygon id="svg_43" points="20.299999237060547,205.10000866651535 20.299999237060547,208.8999964594841 24.200000762939453,213.8999964594841 24.200000762939453,211.80000561475754 25.700000762939453,210.10000866651535 29.299999237060547,209.3999964594841 32.5,211.60000866651535 34.400001525878906,214.60000866651535 36,211.8999964594841 38.400001525878906,210.60000866651535 44.400001525878906,212.1999995112419 48.20000076293945,219.50000256299973 48.20000076293945,205.10000866651535 " class="st22"/>
   </g>
   <g id="cape">
    <polygon id="svg_44" points="48.400001525878906,169.1999995112419 5.300000190734863,199.10000866651535 0,199.10000866651535 0,153.8999964594841 13.699999809265137,153.8999964594841 " class="st4"/>
    <polygon id="svg_45" points="48.400001525878906,169.1999995112419 5.300000190734863,199.10000866651535 0,220.3999964594841 0,153.8999964594841 13.699999809265137,153.8999964594841 " class="st23"/>
    <polygon id="svg_46" points="48.400001525878906,169.1999995112419 5.300000190734863,199.10000866651535 0,220.3999964594841 0,169.1999995112419 " class="st23"/>
    <polygon id="svg_47" points="48.400001525878906,169.1999995112419 91.5999984741211,199.10000866651535 97,220.3999964594841 96.9000015258789,153.8999964594841 82.80000305175781,153.8999964594841 " class="st15"/>
    <polygon id="svg_48" points="48.400001525878906,169.1999995112419 91.5999984741211,199.10000866651535 96.4000015258789,199.10000866651535 97,153.8999964594841 82.80000305175781,153.8999964594841 " class="st4"/>
    <polygon id="svg_49" points="48.400001525878906,169.1999995112419 91.5999984741211,199.10000866651535 97,199.10000866651535 97,169.1999995112419 80.0999984741211,169.1999995112419 " class="st2"/>
    <polygon id="svg_50" points="48.400001525878906,169.1999995112419 5.300000190734863,199.10000866651535 0,220.3999964594841 0,241.1999995112419 4.5,241.1999995112419 10,200.3999964594841 " class="st24"/>
    <polygon id="svg_51" points="48.5,169.1999995112419 91.5999984741211,199.10000866651535 97,220.3999964594841 97,241.1999995112419 92.4000015258789,241.1999995112419 86.9000015258789,200.3999964594841 " class="st24"/>
   </g>
  </g>
 </g>
</svg>