<?xml version="1.0" encoding="utf-8"?>
<!-- Generator: Adobe Illustrator 22.0.1, SVG Export Plug-In . SVG Version: 6.00 Build 0)  -->
<svg version="1.1" id="Capa_1" xmlns="http://www.w3.org/2000/svg" xmlns:xlink="http://www.w3.org/1999/xlink" x="0px" y="0px"
	 viewBox="0 0 132.6 213.7" style="enable-background:new 0 0 132.6 213.7;" xml:space="preserve">
<style type="text/css">
	.st0{fill:#C3443A;}
	.st1{fill:#C54944;}
	.st2{opacity:0.6;fill:#9A2830;}
	.st3{opacity:0.8;fill:#7D1927;}
	.st4{fill:#C85554;}
	.st5{opacity:0.5;fill:#7D1927;}
	.st6{opacity:0.5;fill:#9A2830;}
	.st7{fill:#9A2830;}
	.st8{fill:#EBD342;}
	.st9{opacity:0.2;fill:#C75A33;}
	.st10{fill:#E0C3AD;}
	.st11{fill:url(#SVGID_1_);}
	.st12{fill:#BE9E89;}
	.st13{fill:#CDA9A1;}
	.st14{fill:url(#SVGID_2_);}
	.st15{fill:url(#SVGID_3_);}
	.st16{fill:url(#SVGID_4_);}
	.st17{fill:#D3B19B;}
	.st18{fill:none;stroke:#6B594C;stroke-miterlimit:10;}
	.st19{fill:#F1F1F2;}
	.st20{opacity:0.1;fill:#272424;}
	.st21{opacity:5.000000e-02;fill:#272424;}
	.st22{fill:none;stroke:#EBD342;stroke-width:4;stroke-miterlimit:10;}
</style>
<g id="Flash_1_">
	<g id="chest_8_">
		<rect x="17.8" y="126.4" class="st0" width="97" height="87.3"/>
		<rect x="17.8" y="126.4" class="st1" width="97" height="52"/>
		<polygon class="st2" points="66.3,126.4 17.8,126.4 17.8,213.7 66.3,213.7 		"/>
	</g>
	<g id="neck_8_">
		<polygon class="st0" points="100.6,126.3 83.7,118.3 83.7,106 83.7,96.2 83.7,95 66.3,95 48.9,95 48.9,96.2 48.9,106 48.9,118.3 
			31.6,126.3 66.3,141.5 66.3,141.2 66.3,141.5 		"/>
		<polygon class="st3" points="48.9,118.3 31.6,126.3 48.9,126.3 		"/>
		<polygon class="st4" points="83.7,126.3 66.3,133.4 66.3,141.5 100.6,126.3 		"/>
		<polygon class="st0" points="83.7,126.3 66.3,133.4 48.9,126.3 48.9,95 83.7,95 		"/>
		<polygon class="st5" points="66.3,133.4 48.9,126.3 48.9,95 66.3,95 		"/>
		<polygon class="st3" points="66.3,98.2 48.9,98.2 48.9,99.5 53.1,110.5 66.3,113.5 		"/>
		<polygon class="st6" points="66.3,113.5 79.5,110.5 83.4,99.9 83.7,98.2 66.3,98.2 		"/>
		<polygon class="st7" points="66.3,133.4 48.9,126.3 31.6,126.3 66.3,141.5 		"/>
		<polygon class="st2" points="83.7,118.3 83.7,126.3 100.6,126.3 		"/>
	</g>
	<g id="ears_2_">
		<g>
			<g>
				<polygon class="st8" points="100.8,37.8 103.4,39.3 103.4,56.6 100.8,60.2 99.6,60.2 99.6,37.8 				"/>
				<polygon class="st9" points="100.8,37.8 103.4,39.3 103.4,56.6 100.8,60.2 99.6,60.2 99.6,37.8 				"/>
			</g>
			<g>
				<polygon class="st8" points="103.4,45 103.4,50.8 117.9,43.5 115.5,40.4 				"/>
				<polygon class="st8" points="106.1,33 132.6,25.8 132.6,25.8 111.1,34.4 117.7,43.3 113.5,44 				"/>
				<polygon class="st9" points="117.9,43.5 117,42.4 103.4,47.3 103.4,50.8 				"/>
			</g>
		</g>
		<g>
			<g>
				<polygon class="st8" points="31.8,37.8 29.2,39.3 29.2,56.6 31.8,60.2 33,60.2 33,37.8 				"/>
				<polygon class="st9" points="31.8,37.8 29.2,39.3 29.2,56.6 31.8,60.2 33,60.2 33,37.8 				"/>
			</g>
			<g>
				<polygon class="st8" points="29.2,45 29.2,50.8 14.7,43.5 17.1,40.4 				"/>
				<polygon class="st8" points="26.5,33 0,25.8 0,25.8 21.5,34.4 14.9,43.3 19.1,44 				"/>
				<polygon class="st9" points="14.7,43.5 15.6,42.4 29.2,47.3 29.2,50.8 				"/>
			</g>
		</g>
	</g>
	<g id="face_5_">
		<polygon class="st10" points="78.7,0 66.3,0 53.9,0 33,18.7 33,76.3 53.6,106.7 66.3,106.7 78.9,106.7 99.6,76.3 99.6,18.7 		"/>
		<linearGradient id="SVGID_1_" gradientUnits="userSpaceOnUse" x1="-14.1409" y1="53.3252" x2="97.4952" y2="53.3252">
			<stop  offset="0" style="stop-color:#FFFFFF"/>
			<stop  offset="1" style="stop-color:#FFFFFF;stop-opacity:0"/>
		</linearGradient>
		<polygon class="st11" points="66.3,106.7 78.9,106.7 99.6,76.3 99.6,18.7 78.7,0 66.3,0 		"/>
		<g id="nose_1_">
			<polygon class="st12" points="60.3,78 66.3,81.2 72.2,78 			"/>
			<polygon class="st13" points="72.2,78 66.3,79.1 60.3,78 62.6,50 70,50 			"/>
			<linearGradient id="SVGID_2_" gradientUnits="userSpaceOnUse" x1="51.8744" y1="64.5781" x2="76.2553" y2="64.5781">
				<stop  offset="0" style="stop-color:#FFFFFF"/>
				<stop  offset="1" style="stop-color:#FFFFFF;stop-opacity:0"/>
			</linearGradient>
			<polygon class="st14" points="66.3,50 70,50 71.1,64 72.2,78 66.3,79.1 			"/>
		</g>
		<linearGradient id="SVGID_3_" gradientUnits="userSpaceOnUse" x1="63.943" y1="45.6304" x2="57.8066" y2="96.5177">
			<stop  offset="0" style="stop-color:#FFFFFF"/>
			<stop  offset="1" style="stop-color:#FFFFFF;stop-opacity:0"/>
		</linearGradient>
		<polygon class="st15" points="49.5,87.6 53.6,104.7 66.3,103.7 66.3,86.6 		"/>
		
			<linearGradient id="SVGID_4_" gradientUnits="userSpaceOnUse" x1="3598.8384" y1="68.8662" x2="3619.6091" y2="96.6777" gradientTransform="matrix(-1 0 0 1 3691.4512 0)">
			<stop  offset="0" style="stop-color:#FFFFFF"/>
			<stop  offset="1" style="stop-color:#FFFFFF;stop-opacity:0"/>
		</linearGradient>
		<polygon class="st16" points="83.3,87.6 78.9,104.7 66.3,103.7 66.3,86.6 		"/>
		<polygon class="st17" points="53.6,104.7 66.3,103.7 78.9,104.7 78.9,106.7 53.6,106.7 		"/>
	</g>
	<g id="mask_5_">
		<path class="st0" d="M58.9,58.8h-12l-9.1-6.9h24.5l0.1,2.6L58.9,58.8z M70.2,54.5l0.1-2.6h24.5l-9.1,6.9h-12L70.2,54.5z
			 M79.5,69.1L95.8,55l3.7,21.3l0-57.6L79.7,0H66.3H52.9L33,18.7l0,57.6L36.7,55l16.3,14.1l13.2-10.3L79.5,69.1z"/>
		<path class="st5" d="M58.9,58.8h-12l-9.1-6.9h24.5l0.1,2.6L58.9,58.8z M66.3,0H52.9L33,18.7l0,57.6L36.7,55l16.3,14.1l13.2-10.3"
			/>
		<polygon class="st0" points="33,18.7 52.9,0 66.3,0 66.3,18.7 		"/>
		<polygon class="st1" points="99.6,18.7 80.1,0 66.3,0 66.3,18.7 		"/>
	</g>
	<g id="eyes_4_">
		<line class="st18" x1="74.4" y1="55.3" x2="86.9" y2="54.3"/>
		<line class="st18" x1="45.3" y1="54.3" x2="57.8" y2="55.3"/>
	</g>
	<g id="symbol_1_">
		<path class="st19" d="M41.7,177.2c0.2-13.5,11.3-24.3,24.8-24.1c13.5,0.2,24.3,11.3,24.1,24.8c-0.2,13.5-11.3,24.3-24.8,24.1
			C52.4,201.8,41.6,190.7,41.7,177.2z"/>
		<path class="st20" d="M74.7,154.6l7.1-10.3l-8.4,9.8c-2.2-0.7-4.5-1.1-6.9-1.1c-0.1,0-0.2,0-0.3,0v0c-0.1,0-0.3,0-0.4,0
			c-0.2,0-0.5,0-0.7,0c-0.2,0-0.4,0-0.5,0c-0.2,0-0.5,0-0.7,0.1c-0.2,0-0.3,0-0.5,0.1c-0.2,0-0.5,0.1-0.7,0.1
			c-0.2,0-0.3,0.1-0.5,0.1c-0.2,0-0.5,0.1-0.7,0.1c-0.2,0-0.3,0.1-0.5,0.1c-0.2,0.1-0.5,0.1-0.7,0.2c-0.2,0-0.3,0.1-0.5,0.1
			c-0.2,0.1-0.5,0.1-0.7,0.2c-0.2,0-0.3,0.1-0.5,0.1c-0.2,0.1-0.5,0.2-0.7,0.2c-0.1,0.1-0.3,0.1-0.4,0.2c-0.2,0.1-0.4,0.2-0.7,0.3
			c-0.1,0.1-0.3,0.1-0.4,0.2c-0.2,0.1-0.4,0.2-0.6,0.3c-0.1,0.1-0.3,0.1-0.4,0.2c-0.2,0.1-0.4,0.2-0.6,0.3c-0.1,0.1-0.3,0.2-0.4,0.2
			c-0.2,0.1-0.4,0.2-0.6,0.3c-0.1,0.1-0.3,0.2-0.4,0.3c-0.2,0.1-0.4,0.2-0.6,0.4c-0.1,0.1-0.3,0.2-0.4,0.3c-0.2,0.1-0.4,0.3-0.6,0.4
			c-0.1,0.1-0.2,0.2-0.4,0.3c-0.2,0.1-0.4,0.3-0.6,0.4c-0.1,0.1-0.2,0.2-0.4,0.3c-0.2,0.2-0.4,0.3-0.5,0.5c-0.1,0.1-0.2,0.2-0.3,0.3
			c-0.2,0.2-0.3,0.3-0.5,0.5c-0.1,0.1-0.2,0.2-0.3,0.3c-0.2,0.2-0.3,0.3-0.5,0.5c-0.1,0.1-0.2,0.2-0.3,0.3c-0.2,0.2-0.3,0.4-0.5,0.5
			c-0.1,0.1-0.2,0.2-0.3,0.4c-0.2,0.2-0.3,0.4-0.4,0.6c-0.1,0.1-0.2,0.2-0.3,0.4c-0.1,0.2-0.3,0.4-0.4,0.6c-0.1,0.1-0.2,0.3-0.3,0.4
			c-0.1,0.2-0.3,0.4-0.4,0.6c-0.1,0.1-0.2,0.3-0.2,0.4c-0.1,0.2-0.2,0.4-0.4,0.6c-0.1,0.1-0.1,0.3-0.2,0.4c-0.1,0.2-0.2,0.4-0.3,0.6
			c-0.1,0.1-0.1,0.3-0.2,0.4c-0.1,0.2-0.2,0.4-0.3,0.6c-0.1,0.2-0.1,0.3-0.2,0.5c-0.1,0.2-0.2,0.4-0.2,0.6c-0.1,0.2-0.1,0.3-0.2,0.5
			c-0.1,0.2-0.1,0.4-0.2,0.6c-0.1,0.2-0.1,0.4-0.2,0.5c-0.1,0.2-0.1,0.4-0.2,0.6c0,0.2-0.1,0.4-0.1,0.6c0,0.2-0.1,0.4-0.1,0.6
			c0,0.2-0.1,0.4-0.1,0.6c0,0.2-0.1,0.4-0.1,0.6c0,0.2-0.1,0.4-0.1,0.6c0,0.2-0.1,0.4-0.1,0.6c0,0.2,0,0.4-0.1,0.6
			c0,0.2,0,0.4,0,0.6c0,0.2,0,0.4,0,0.6c0,0.2,0,0.3,0,0.5c0,0.1,0,0.1,0,0.2c0,0.1,0,0.1,0,0.2c0,0.2,0,0.3,0,0.5
			c0,0.2,0,0.4,0,0.6c0,0.2,0,0.4,0,0.6c0,0.2,0,0.4,0,0.6c0,0.2,0,0.4,0.1,0.6c0,0.2,0,0.4,0.1,0.6c0,0.2,0.1,0.4,0.1,0.6
			c0,0.2,0.1,0.4,0.1,0.6c0,0.2,0.1,0.4,0.1,0.6c0,0.2,0.1,0.4,0.1,0.6c0.1,0.2,0.1,0.4,0.2,0.6c0.1,0.2,0.1,0.4,0.2,0.6
			c0.1,0.2,0.1,0.4,0.2,0.6c0.1,0.2,0.1,0.4,0.2,0.5c0.1,0.2,0.2,0.4,0.2,0.6c0.1,0.2,0.1,0.3,0.2,0.5c0.1,0.2,0.2,0.4,0.3,0.6
			c0.1,0.2,0.1,0.3,0.2,0.5c0.1,0.2,0.2,0.4,0.3,0.6c0.1,0.2,0.2,0.3,0.2,0.4c0.1,0.2,0.2,0.4,0.3,0.6c0.1,0.1,0.2,0.3,0.2,0.4
			c0.1,0.2,0.2,0.4,0.4,0.6c0.1,0.1,0.2,0.3,0.3,0.4c0.1,0.2,0.3,0.4,0.4,0.6c0.1,0.1,0.2,0.3,0.3,0.4c0.1,0.2,0.3,0.4,0.4,0.5
			c0.1,0.1,0.2,0.3,0.3,0.4c0.1,0.2,0.3,0.3,0.4,0.5c0.1,0.1,0.2,0.3,0.3,0.4c0.1,0.2,0.3,0.3,0.5,0.5c0.1,0.1,0.2,0.3,0.4,0.4
			c0.2,0.2,0.3,0.3,0.5,0.5c0.1,0.1,0.2,0.2,0.4,0.4c0.2,0.1,0.3,0.3,0.5,0.4c0.1,0.1,0.3,0.2,0.4,0.3c0.2,0.1,0.3,0.3,0.5,0.4
			c0.1,0.1,0.3,0.2,0.4,0.3c0.2,0.1,0.3,0.2,0.5,0.4c0.1,0.1,0.3,0.2,0.4,0.3c0.2,0.1,0.3,0.2,0.5,0.3c0.2,0.1,0.3,0.2,0.5,0.3
			c0.2,0.1,0.4,0.2,0.5,0.3c0.2,0.1,0.3,0.2,0.5,0.3c0.2,0.1,0.4,0.2,0.6,0.3c0.2,0.1,0.3,0.2,0.5,0.3c0.2,0.1,0.4,0.2,0.6,0.3
			c0.2,0.1,0.3,0.2,0.5,0.2c0.2,0.1,0.4,0.2,0.6,0.2c0.2,0.1,0.3,0.1,0.5,0.2c0.2,0.1,0.4,0.1,0.6,0.2c0,0,0.1,0,0.1,0l-7.8,12
			l9.5-11.5c0.2,0,0.3,0.1,0.5,0.1c0.2,0,0.4,0.1,0.5,0.1c0.2,0,0.4,0.1,0.7,0.1c0.2,0,0.4,0.1,0.5,0.1c0.2,0,0.4,0.1,0.7,0.1
			c0.2,0,0.4,0.1,0.6,0.1c0.2,0,0.4,0,0.7,0.1c0.2,0,0.4,0,0.6,0c0.2,0,0.4,0,0.6,0c0.2,0,0.3,0,0.5,0c0.1,0,0.1,0,0.2,0
			c0.1,0,0.1,0,0.2,0v0c13.4,0,24.3-10.7,24.5-24.1C90.8,167.2,84.1,158.1,74.7,154.6z M66.5,156.1c1.6,0,3.2,0.2,4.8,0.6l-5.1,5.9
			v-6.5L66.5,156.1z M66.2,172.3l0.8,0l-0.8,1.1V172.3z M66.2,201L66.2,201l0-7.3l7.7-9.4l-7.7,0.3v-0.9l12.4-16l-12.4,0.5V167
			l6.8-9.9c3.5,1.1,6.7,3.1,9.3,5.7c4.2,4.3,6.4,10,6.4,16C88.5,191,78.4,201,66.2,201z"/>
		<path class="st21" d="M66.2,202c13.5,0.2,24.3-10.6,24.5-24.1l-24.5,0V202z"/>
		<path class="st21" d="M66.2,202c-13.5,0.2-24.3-10.6-24.5-24.1l24.5,0V202z"/>
		<path class="st22" d="M41.7,177.2c0.2-13.5,11.3-24.3,24.8-24.1c13.5,0.2,24.3,11.3,24.1,24.8c-0.2,13.5-11.3,24.3-24.8,24.1
			C52.4,201.8,41.6,190.7,41.7,177.2z"/>
		<path class="st9" d="M66.2,204v-4l-0.3,0c-12.4-0.2-22.3-10.4-22.2-22.8c0.2-12.2,10.2-22.2,22.4-22.2h0v-4h0c-0.5,0-0.9,0-1.4,0
			c-12.4,0.6-22.7,10-24.7,22c0,0,0,0.1,0,0.1c-0.1,0.3-0.1,0.7-0.1,1c0,0.1,0,0.3-0.1,0.4c0,0.3,0,0.5-0.1,0.8c0,0.2,0,0.4,0,0.6
			c0,0.2,0,0.4,0,0.7c0,0.2,0,0.5,0,0.7c0,0.2,0,0.4,0,0.7c0,0.2,0,0.5,0,0.7c0,0.2,0,0.4,0,0.7c0,0.2,0,0.4,0,0.7
			c0,0.2,0.1,0.5,0.1,0.7c0,0.2,0,0.4,0.1,0.6c0,0.3,0.1,0.6,0.1,0.8c0,0.1,0.1,0.3,0.1,0.4c0.1,0.3,0.1,0.6,0.2,1
			c0,0.1,0,0.2,0.1,0.3c0.1,0.4,0.2,0.7,0.3,1.1c0,0,0,0.1,0,0.1c2.5,8.3,8.9,14.9,17.1,17.6c0,0,0.1,0,0.1,0
			c0.4,0.1,0.7,0.2,1.1,0.3c0.1,0,0.1,0,0.2,0.1c0.3,0.1,0.7,0.2,1,0.2c0.1,0,0.2,0.1,0.3,0.1c0.3,0.1,0.6,0.1,0.9,0.2
			c0.1,0,0.3,0.1,0.4,0.1c0.3,0,0.5,0.1,0.8,0.1c0.2,0,0.4,0,0.5,0.1c0.2,0,0.5,0,0.7,0.1c0.2,0,0.4,0,0.6,0c0.2,0,0.5,0,0.7,0
			C65.6,204,65.9,204,66.2,204L66.2,204z"/>
		<g>
			<polygon class="st8" points="65.4,183.7 78.5,166.7 65.3,167.3 81.8,143.3 57.6,171.7 67,171.3 53.6,188.6 66,188 50.6,211.7 
				73.9,183.3 			"/>
		</g>
		<path class="st9" d="M67.2,161.7l-9.6,10l9.4-0.4l-13.4,17.4l12.7-0.7l-0.2,1.5l-15.5,22.3c0.5,0.2,16.6-20.2,16.6-20.2l-0.1-7.1
			l-2.5,0.2l2.6-3.2l0-9L54,188.6l13.2-17.5l0-3.1l-2.6,0.1l2.6-3.6V161.7z"/>
	</g>
</g>
</svg>
