<?xml version="1.0" encoding="utf-8"?>
<!-- Generator: Adobe Illustrator 22.0.1, SVG Export Plug-In . SVG Version: 6.00 Build 0)  -->
<svg version="1.1" id="Capa_1" xmlns="http://www.w3.org/2000/svg" xmlns:xlink="http://www.w3.org/1999/xlink" x="0px" y="0px"
	 viewBox="0 0 97 219.8" style="enable-background:new 0 0 97 219.8;" xml:space="preserve">
<style type="text/css">
	.st0{fill:#848E65;}
	.st1{fill:#A4B37B;}
	.st2{fill:#95A470;}
	.st3{opacity:0.2;fill:#7D865F;}
	.st4{fill:#AFB98B;}
	.st5{fill:#7D865F;}
	.st6{fill:#8F9772;}
	.st7{fill:#9BA977;}
	.st8{opacity:0.4;fill:#6C7552;}
	.st9{fill:#6C7552;}
	.st10{fill:#444A2F;}
</style>
<g id="Hulk">
	<g id="chest_6_">
		<polygon class="st0" points="97,114.8 87.7,107.8 87.7,79.2 48.5,74.2 9.2,79.2 9.2,107.8 0,114.8 0,219.8 48.5,219.8 97,219.8 		
			"/>
		<polygon class="st1" points="48.6,143.9 48.5,213.1 72.3,218 97,218 97,127.4 		"/>
		<polygon class="st2" points="48.6,143.9 48.5,213.1 24.7,217.7 0,217.7 0,127.4 		"/>
		<polygon class="st3" points="97,219.8 0,219.8 0,199.6 97,199.6 		"/>
	</g>
	<g id="neck_6_">
		<polygon class="st1" points="87.7,134.7 48.6,145.5 9.2,131.7 9.4,83.4 87.7,83.4 		"/>
		<polygon class="st2" points="48.6,145.5 9.2,131.7 9.2,83.4 48.5,83.3 		"/>
		<g>
			<polygon class="st1" points="45.5,131.4 48.6,143.9 41.9,137 0,131.4 0,127.4 9.2,127.4 			"/>
			<polygon class="st4" points="51.5,131.4 48.6,143.9 55.1,137 97,131.4 97,127.4 87.7,127.4 			"/>
		</g>
		<polygon class="st2" points="87.7,127.4 87.7,107.8 97,114.8 97,127.4 		"/>
		<polygon class="st5" points="48.5,87.3 9.4,87.4 9.4,92.9 31.7,122.5 48.5,122.5 		"/>
		<polygon class="st6" points="48.5,122.5 65.6,122.5 87.7,92.9 87.7,87.4 48.5,87.3 		"/>
		<polygon class="st5" points="9.2,127.4 9.2,107.8 0,114.8 0,127.4 		"/>
	</g>
	<g id="face_6_">
		<g id="ears_1_">
			<polygon class="st0" points="5,74.3 10.8,74.3 10.8,54.2 2.8,54.2 			"/>
			<polygon class="st1" points="86.2,74.3 92,74.3 94.1,54.2 86.2,54.2 			"/>
		</g>
		<polygon class="st2" points="63.9,12 48.5,12 33.2,12 10.2,22.8 7.1,52.1 7.2,90.4 31.7,118.5 65.6,118.5 89.9,90.4 89.7,52.1 
			86.6,22.7 		"/>
		<polygon class="st7" points="48.6,115.4 31.7,116.5 20,93.1 12.2,73.1 12.1,22.8 33.8,12 48.5,12 		"/>
		<polygon class="st1" points="48.5,115.4 65.6,116.5 77.2,93.1 84.9,73.1 85,22.8 63.2,12 48.5,12 		"/>
		<polygon class="st1" points="20,93.1 31.7,116.5 48.5,115.4 48.5,89.8 		"/>
		<polygon class="st4" points="77.2,93.1 65.6,116.5 48.5,115.4 48.5,89.8 		"/>
		<g id="nose_2_">
			<polygon class="st8" points="40,75.6 48.5,79.6 57.2,75.6 			"/>
			<polygon class="st9" points="40,75.6 48.5,73.9 57.2,75.6 			"/>
			<polygon class="st0" points="57.2,75.6 48.5,73.9 40,75.6 45,57.2 52.2,57.2 			"/>
			<polygon class="st4" points="48.5,57.2 52.2,57.2 57.2,75.6 48.5,73.9 			"/>
		</g>
	</g>
	<g id="eyes_6_">
		<polygon class="st0" points="45,62.2 29,62.7 17.5,57.8 17.5,57 45,57 		"/>
		<polygon class="st0" points="53.2,62.2 69.2,62.7 80.7,57.8 80.7,57 53.2,57 		"/>
		<polygon class="st4" points="84.1,57 68.1,59.2 53,62.2 48.5,58.7 48.5,49.4 50.5,46.6 69,43.8 84.1,46.9 		"/>
		<polygon class="st4" points="84.1,57 68.1,59.2 53,62.2 48.5,58.7 48.5,49.4 50.5,46.6 69,43.8 84.1,46.9 		"/>
		<polygon class="st1" points="12.9,57 29,59.2 44.1,62.2 48.5,58.7 48.5,49.4 46.5,46.6 28.1,43.8 12.9,46.9 		"/>
		<polygon class="st10" points="50.5,58 53.2,62.2 68.1,59.2 77.2,55.3 82.8,55.3 80.7,51.2 58.5,53 52.9,58.5 		"/>
		<polygon class="st10" points="46.8,58 44.2,62.2 29.3,59.2 20.2,55.3 14.6,55.3 16.7,51.2 38.8,53 44.5,58.5 		"/>
	</g>
	<g id="hair_1_">
		<polygon class="st10" points="86.7,22.8 74.8,10 48.5,6 48.5,6 22.2,10 10.2,22.8 7.1,37.2 7.1,59.1 11.9,29.2 48.5,27.2 
			85.1,29.2 89.9,59.1 89.9,37.2 		"/>
		<polygon class="st10" points="48.5,6 61.2,0 58.5,6 69.7,3 66.9,8.5 77.2,7.3 74.9,10.1 		"/>
	</g>
</g>
</svg>
