<?xml version="1.0" encoding="utf-8"?>
<!-- Generator: Adobe Illustrator 22.0.1, SVG Export Plug-In . SVG Version: 6.00 Build 0)  -->
<svg version="1.1" id="Capa_1" xmlns="http://www.w3.org/2000/svg" xmlns:xlink="http://www.w3.org/1999/xlink" x="0px" y="0px"
	 viewBox="0 0 97 215.6" style="enable-background:new 0 0 97 215.6;" xml:space="preserve">
<style type="text/css">
	.st0{fill:#4B613B;}
	.st1{fill:#455837;}
	.st2{fill:#293521;}
	.st3{fill:#E0C3AD;}
	.st4{fill:#BE9E89;}
	.st5{opacity:0.5;fill:#BE9E89;}
	.st6{fill:#596E48;}
	.st7{fill:#637C4F;}
	.st8{fill:#E0C2AD;}
	.st9{opacity:0.3;fill:#C49790;}
	.st10{fill:#E8D8C9;}
	.st11{fill:#CDA9A2;}
	.st12{fill:#DEB9B0;}
	.st13{fill:url(#SVGID_1_);}
	.st14{fill:url(#SVGID_2_);}
	.st15{fill:#4F4039;}
	.st16{fill:#FFFFFF;}
	.st17{fill:#F1F1F2;}
	.st18{fill:#CFD0D1;}
	.st19{fill:none;stroke:#202C1D;stroke-width:0.5;stroke-miterlimit:10;}
	.st20{fill:#202C1D;}
	.st21{fill:#192218;}
</style>
<g id="Green_Lantern">
	<g id="chest_7_">
		<rect x="0" y="134.7" class="st0" width="97" height="81.2"/>
		<polygon class="st1" points="48.5,135.7 0,134.7 0,215.9 48.5,215.9 		"/>
		<polygon class="st2" points="0,183.3 11.5,215.9 0,215.9 		"/>
		<polygon class="st2" points="97,183.3 85.5,215.9 97,215.9 		"/>
	</g>
	<g id="neck_7_">
		<polygon class="st0" points="48.5,143.8 48.5,143.8 93.3,134.7 70.1,125.7 70.1,88 48.5,88 48.5,88 26.9,88 26.9,125.3 3.7,134.7 
			48.5,143.8 48.5,143.8 48.5,143.8 48.5,143.8 48.5,143.8 48.5,143.8 48.5,143.8 48.5,143.8 48.5,143.8 		"/>
		<polygon class="st3" points="70.1,128.5 48.5,135.7 26.9,128.5 26.9,88 70.1,88 		"/>
		<polygon class="st4" points="48.5,91.1 26.9,91.1 26.9,95.5 32.2,109.8 48.5,112.8 		"/>
		<polygon class="st5" points="48.5,112.8 64.9,109.8 70.1,95.5 70.1,91.1 48.5,91.1 		"/>
		<polygon class="st1" points="25.9,125.7 3.7,134.7 21.7,134.7 25.9,131.4 		"/>
		<polygon class="st0" points="75.3,134.7 71.2,131.4 71.2,115.3 71.1,115.3 71.1,115.3 48.5,119.4 25.9,115.3 25.9,131.4 
			21.7,134.7 48.5,139.9 48.5,139.9 48.5,139.9 		"/>
		<polygon class="st6" points="48.5,139.9 75.3,134.7 71.2,131.4 71.2,115.3 71.1,115.3 71.1,115.3 48.5,119.4 		"/>
		<polygon class="st6" points="48.5,139.9 21.7,134.7 3.7,134.7 45.3,143.1 48.5,147.1 		"/>
		<polygon class="st7" points="48.5,139.9 75.3,134.7 93.3,134.7 51.7,143.1 48.5,147.1 		"/>
	</g>
	<g id="ears_3_">
		<polygon class="st8" points="15.2,47.8 9.8,47.8 11.5,66.8 15.2,66.8 		"/>
		<polygon class="st8" points="81.8,47.8 87.2,47.8 85.5,66.8 81.8,66.8 		"/>
	</g>
	<g id="face_7_">
		<polygon class="st8" points="60.9,7 48.5,7 36.1,7 15.2,22.4 15.2,78.5 35.8,108.8 48.5,108.8 61.2,108.8 81.8,78.5 81.8,22.4 		
			"/>
		<polygon class="st9" points="48.5,7 36.1,7 15.2,22.4 15.2,78.5 35.8,108.8 48.5,108.8 		"/>
		<polygon class="st10" points="48.5,104.8 61.2,106.8 66.8,86.2 81.8,62.1 81.8,22.4 60.9,7 48.5,7 		"/>
		<polygon class="st8" points="48.5,104.8 35.8,106.8 30.2,86.2 15.2,62.1 15.2,22.4 36.1,7 48.5,7 		"/>
		<polygon class="st4" points="42.5,74.4 48.5,77.6 54.5,74.4 		"/>
		<polygon class="st11" points="54.5,74.4 48.5,75.5 42.5,74.4 48.5,46.4 48.5,46.4 		"/>
		<polygon class="st12" points="48.5,46.4 48.5,46.4 54.5,74.4 48.5,75.5 		"/>
		<linearGradient id="SVGID_1_" gradientUnits="userSpaceOnUse" x1="47.0627" y1="39.9911" x2="40.1199" y2="97.566">
			<stop  offset="0" style="stop-color:#FFFFFF"/>
			<stop  offset="1" style="stop-color:#FFFFFF;stop-opacity:0"/>
		</linearGradient>
		<polygon class="st13" points="32.2,86.2 35.8,106.8 48.5,104.8 48.5,86.2 		"/>
		
			<linearGradient id="SVGID_2_" gradientUnits="userSpaceOnUse" x1="3575.6475" y1="67.3884" x2="3597.9329" y2="97.2285" gradientTransform="matrix(-1 0 0 1 3652.2383 0)">
			<stop  offset="0" style="stop-color:#FFFFFF"/>
			<stop  offset="1" style="stop-color:#FFFFFF;stop-opacity:0"/>
		</linearGradient>
		<polygon class="st14" points="64.8,86.2 61.2,106.8 48.5,104.8 48.5,86.2 		"/>
	</g>
	<g id="hair_2_">
		<polygon class="st15" points="75.5,7.6 48.5,2 48.5,2 21.5,7.6 12.5,20.6 14.5,38.1 15.2,59.3 16.2,47.8 24.3,35.8 24.7,22.3 
			48.5,26.3 71.8,21.5 72.6,35.8 80.8,47.8 81.8,59.3 82.5,38.1 84.5,20.6 		"/>
		<polygon class="st15" points="34.5,22.1 30.7,25.1 33.5,28.5 33.5,25.3 40.4,23.5 		"/>
	</g>
	<g id="mask_4_">
		<g>
			<polygon class="st0" points="29,42.5 18.6,46.4 16.7,52.4 18.6,61.6 33.6,71.3 42.4,73.3 48.5,73.6 48.5,46.4 41.2,45.1 			"/>
			<polygon class="st6" points="78.4,46.4 68,42.5 55.8,45.1 48.5,46.4 48.5,73.6 54.6,73.3 63.5,71.3 78.4,61.6 80.3,52.4 			"/>
		</g>
		<polygon class="st1" points="23.3,51.5 45,53.3 42,58.1 36,62.5 24.2,57.2 19.5,52.4 		"/>
		<polygon class="st16" points="23.3,52.4 41.1,53.1 37.8,57.2 25,55.4 		"/>
		<polygon class="st1" points="48.5,49.1 42.8,73.3 48.5,73.6 		"/>
		<polygon class="st1" points="73.7,51.5 52,53.3 55,58.1 61,62.5 72.8,57.2 77.5,52.4 		"/>
		<polygon class="st16" points="73.7,52.4 55.9,53.1 59.2,57.2 72,55.4 		"/>
		<polygon class="st7" points="48.5,49.7 54.2,73.3 48.5,73.6 		"/>
	</g>
	<g id="symbol_2_">
		<path class="st17" d="M21.1,183.3c0-15.1,12.3-27.4,27.4-27.4s27.4,12.3,27.4,27.4c0,15.1-12.3,27.4-27.4,27.4
			S21.1,198.5,21.1,183.3z"/>
		<path class="st18" d="M48.5,210.8c-15.1,0-27.4-12.3-27.4-27.4c0-15.1,12.3-27.4,27.4-27.4"/>
		<path class="st19" d="M21.1,183.3c0-15.1,12.3-27.4,27.4-27.4s27.4,12.3,27.4,27.4c0,15.1-12.3,27.4-27.4,27.4
			S21.1,198.5,21.1,183.3z"/>
		<polygon class="st20" points="32.2,169.7 30.1,164.7 66.8,164.7 64.8,169.7 		"/>
		<polygon class="st20" points="30.2,202 32.1,197 64.8,196.9 66.8,201.9 		"/>
		<path class="st20" d="M48.5,200.1c-9.2,0-16.7-7.5-16.7-16.7s7.5-16.7,16.7-16.7s16.7,7.5,16.7,16.7S57.8,200.1,48.5,200.1z
			 M48.5,171.6c-6.5,0-11.7,5.3-11.7,11.7c0,6.5,5.3,11.7,11.7,11.7c6.5,0,11.7-5.3,11.7-11.7C60.3,176.9,55,171.6,48.5,171.6z"/>
		<path class="st21" d="M30.2,202l18.4,0v-6.8c0,0,0,0,0,0c-6.5,0-11.7-5.3-11.7-11.7c0-6.5,5.3-11.7,11.7-11.7c0,0,0,0,0,0v-6.9
			l-18.4,0l2,5l6.6,0c-4.2,3-7,8-7,13.6c0,5.6,2.8,10.6,7,13.6l-6.7,0L30.2,202z"/>
	</g>
</g>
</svg>
