<?xml version="1.0" encoding="utf-8"?>
<!-- Generator: Adobe Illustrator 22.0.1, SVG Export Plug-In . SVG Version: 6.00 Build 0)  -->
<svg version="1.1" id="Capa_1" xmlns="http://www.w3.org/2000/svg" xmlns:xlink="http://www.w3.org/1999/xlink" x="0px" y="0px"
	 viewBox="0 0 111.1 213.7" style="enable-background:new 0 0 111.1 213.7;" xml:space="preserve">
<style type="text/css">
	.st0{fill:#D9C03D;}
	.st1{fill:#EBD342;}
	.st2{fill:#1C2639;}
	.st3{fill:#24304D;}
	.st4{fill:#C29D37;}
	.st5{fill:#D6B43D;}
	.st6{opacity:0.7;fill:#ECDC41;}
	.st7{opacity:0.7;fill:#EFE646;}
	.st8{fill:#E0C3AD;}
	.st9{fill:url(#SVGID_1_);}
	.st10{fill:#BE9E89;}
	.st11{fill:#CDA9A1;}
	.st12{fill:url(#SVGID_2_);}
	.st13{fill:url(#SVGID_3_);}
	.st14{fill:url(#SVGID_4_);}
	.st15{fill:#E8C93F;}
	.st16{opacity:0.2;fill:#FFFFFF;}
	.st17{fill:#EFE646;}
	.st18{fill:#C6A23D;}
	.st19{fill:#2E3C5B;}
	.st20{fill:#425371;}
	.st21{fill:#272424;}
	.st22{fill:#FFFFFF;}
	.st23{fill:#F1F1F2;}
</style>
<g id="Wolverine">
	<g id="chest_13_">
		<rect x="7" y="145.9" class="st0" width="48.6" height="67.8"/>
		<rect x="55.6" y="145.9" class="st1" width="48.5" height="67.8"/>
		<polygon class="st2" points="13.6,213.7 7,145.9 10.2,145.9 22.2,140.3 		"/>
		<polygon class="st3" points="97.5,213.7 104.1,145.9 100.8,145.9 88.9,140.4 		"/>
	</g>
	<g id="neck_13_">
		<polygon class="st1" points="80.9,145.9 77.5,136.7 77.5,117.3 55.5,117.3 33.5,117.3 33.5,136.7 30.1,145.9 55.5,161.1 
			55.5,160.8 55.5,161.1 		"/>
		<polygon class="st4" points="30.1,136.7 10.2,145.9 30.1,145.9 		"/>
		<polygon class="st0" points="80.9,136.7 100.8,145.9 80.9,145.9 		"/>
		<polygon class="st1" points="80.9,145.9 55.6,161.1 30.1,145.3 30.1,112.2 80.9,112.2 		"/>
		<polygon class="st5" points="55.6,161.1 30.1,145.9 30.1,112.2 55.5,112.2 		"/>
		<polygon class="st4" points="55.5,112.2 30.1,112.2 32.3,123.5 40.9,134.6 55.5,138 		"/>
		<polygon class="st0" points="55.5,138 70.2,134.6 78.6,124.1 80.9,112.2 55.5,112.2 		"/>
		<polygon class="st6" points="49.8,153.5 29,150.4 21.1,150.4 53.6,161.1 		"/>
		<polygon class="st7" points="82.5,150.4 62.3,153.5 58.4,161.1 90,150.4 		"/>
		<polygon class="st2" points="22.2,140.3 10.2,145.9 21.6,145.9 		"/>
		<polygon class="st3" points="88.9,140.4 89.5,145.9 100.8,145.9 		"/>
	</g>
	<g id="face_12_">
		<polygon class="st8" points="68.7,25.3 55.5,25.3 42.3,25.3 20,42.2 20,97.8 42,130.1 55.6,132.1 69,130.1 91,97.9 91,42.2 		"/>
		<linearGradient id="SVGID_1_" gradientUnits="userSpaceOnUse" x1="-30.1076" y1="77.7417" x2="88.779" y2="77.7417">
			<stop  offset="0" style="stop-color:#FFFFFF"/>
			<stop  offset="1" style="stop-color:#FFFFFF;stop-opacity:0"/>
		</linearGradient>
		<polygon class="st9" points="55.5,129.1 69,130.1 91,97.9 91,38.2 68.7,25.3 55.5,25.3 		"/>
		<polygon class="st10" points="48.9,95.7 55.5,102.6 62.2,95.7 		"/>
		<polygon class="st11" points="61.2,95.7 55.5,96.8 49.8,95.7 52,63.7 59,63.7 		"/>
		<linearGradient id="SVGID_2_" gradientUnits="userSpaceOnUse" x1="41.7393" y1="80.2354" x2="65.0599" y2="80.2354">
			<stop  offset="0" style="stop-color:#FFFFFF"/>
			<stop  offset="1" style="stop-color:#FFFFFF;stop-opacity:0"/>
		</linearGradient>
		<polygon class="st12" points="55.5,63.7 59,63.7 60.1,77.7 61.2,95.7 55.5,96.8 		"/>
		<linearGradient id="SVGID_3_" gradientUnits="userSpaceOnUse" x1="-37.6399" y1="4.2346" x2="70.3691" y2="148.8573">
			<stop  offset="0" style="stop-color:#FFFFFF"/>
			<stop  offset="1" style="stop-color:#FFFFFF;stop-opacity:0"/>
		</linearGradient>
		<polygon class="st13" points="30.3,112.6 42,130.1 55.5,129.1 55.5,109.8 		"/>
		
			<linearGradient id="SVGID_4_" gradientUnits="userSpaceOnUse" x1="3591.406" y1="91.5613" x2="3617.083" y2="125.9425" gradientTransform="matrix(-1 0 0 1 3674.8987 0)">
			<stop  offset="0" style="stop-color:#FFFFFF"/>
			<stop  offset="1" style="stop-color:#FFFFFF;stop-opacity:0"/>
		</linearGradient>
		<polygon class="st14" points="80.9,112.6 69,130.1 55.5,129.1 55.5,109.8 		"/>
	</g>
	<g id="mask_8_">
		<polygon class="st15" points="68.7,25.3 55.9,25.3 42.3,25.3 20,42.2 20,97.8 32.3,115.9 30.3,98.9 26.6,91.4 48.9,95.7 
			55.5,96.8 62.2,95.7 84.5,91.4 80.9,112.6 91,97.9 91,42.2 		"/>
		<polygon class="st5" points="55.5,25.3 42.3,25.3 20,42.2 20,97.8 32.3,115.9 30.3,98.9 26.6,91.4 48.9,95.7 55.5,96.8 		"/>
		<polygon class="st16" points="20,42.2 42.3,25.3 55.5,25.3 55.5,42.2 		"/>
		<polygon class="st17" points="91,42.2 68.7,25.3 55.5,25.3 55.5,42.2 		"/>
		<polygon class="st2" points="59.6,71.6 79.7,48.5 111.1,0 106.1,63.5 91,97.9 77.5,117.6 79.8,98.9 83.7,91.4 55.5,96.8 		"/>
		<polygon class="st3" points="51.5,71.6 31.4,48.5 0,0 5,63.5 20.1,97.9 33.5,117.6 31.2,98.9 27.4,91.4 55.5,96.8 		"/>
		<polygon class="st17" points="55.5,96.8 55.5,71.6 59.6,71.6 58.9,96.2 		"/>
		<polygon class="st18" points="55.5,96.8 55.5,71.6 51.4,71.6 52.1,96.2 		"/>
		<polygon class="st19" points="48.9,95.6 51.4,71.6 52.1,96.2 		"/>
		<polygon class="st20" points="62.2,95.6 59.6,71.6 58.9,96.2 		"/>
	</g>
	<g id="eyes_8_">
		<polygon class="st21" points="27,73.1 48.5,73.1 51.4,76.2 47.9,79.4 30.3,79.4 		"/>
		<polygon class="st21" points="84,73.1 63.4,73.1 59.6,76.2 63.2,79.4 80.8,79.4 		"/>
		<polygon class="st22" points="80.6,73.1 64.5,74.9 65.3,76.1 78.5,76.1 		"/>
		<polygon class="st23" points="30.3,73.1 46.3,74.9 45.6,76.1 32.3,76.1 		"/>
	</g>
</g>
</svg>
