<?xml version="1.0" encoding="utf-8"?>
<!-- Generator: Adobe Illustrator 22.0.1, SVG Export Plug-In . SVG Version: 6.00 Build 0)  -->
<svg version="1.1" id="Capa_1" xmlns="http://www.w3.org/2000/svg" xmlns:xlink="http://www.w3.org/1999/xlink" x="0px" y="0px"
	 viewBox="0 0 97 213.7" style="enable-background:new 0 0 97 213.7;" xml:space="preserve">
<style type="text/css">
	.st0{fill:#619DCD;}
	.st1{fill:#446EAA;}
	.st2{fill:#434243;}
	.st3{fill:#383838;}
	.st4{fill:#595A5B;}
	.st5{fill:#E0C3AD;}
	.st6{fill:#BE9E89;}
	.st7{opacity:0.5;fill:#BE9E89;}
	.st8{fill:#808082;}
	.st9{fill:#E0C2AD;}
	.st10{fill:#E3CBB2;}
	.st11{opacity:0.2;fill:#C49790;}
	.st12{fill:#E8D8C9;}
	.st13{fill:#CDA9A2;}
	.st14{fill:#DEB9B0;}
	.st15{fill:url(#SVGID_1_);}
	.st16{fill:url(#SVGID_2_);}
	.st17{fill:#BABBBC;stroke:#6B594C;stroke-width:1.5;stroke-miterlimit:10;}
	.st18{fill:#4F4039;}
	.st19{fill:#BABBBC;}
	.st20{fill:#F1F1F2;}
	.st21{opacity:0.3;fill:#272424;}
	.st22{opacity:0.2;fill:#272424;}
</style>
<g id="Mr.Fantastic">
	<g id="chest_14_">
		<rect y="132.5" class="st0" width="97" height="81.2"/>
		<polygon class="st1" points="48.5,133.5 0,132.5 0,213.7 48.5,213.7 		"/>
	</g>
	<g id="neck_14_">
		<polygon class="st2" points="48.5,141.6 48.5,141.6 89.4,132.5 68.2,123.6 68.2,85.8 48.5,85.8 48.5,85.8 28.7,85.8 28.8,123.1 
			7.6,132.5 48.5,141.6 48.5,141.6 48.5,141.6 48.5,141.6 48.5,141.6 48.5,141.6 48.5,141.6 48.5,141.6 48.5,141.6 		"/>
		<polygon class="st3" points="6,132.5 21.4,147.9 48.5,150.2 48.5,132.5 		"/>
		<polygon class="st4" points="90.9,132.5 75.5,147.9 48.5,150.2 48.5,132.5 		"/>
		<polygon class="st5" points="69.2,126.4 48.5,133.5 27.8,126.4 27.8,85.8 69.2,85.8 		"/>
		<polygon class="st6" points="48.5,89 28.7,89 28,95.2 33.6,107.6 48.5,110.6 		"/>
		<polygon class="st7" points="48.5,110.6 63.5,107.6 69.3,94.7 68.2,89 48.5,89 		"/>
		<polygon class="st3" points="27.8,123.6 7.6,132.5 24,132.5 27.8,129.2 		"/>
		<polygon class="st2" points="73,132.5 69.2,129.2 69.2,113.1 69.2,113.1 69.2,113.1 48.5,117.3 27.8,113.1 27.8,129.2 24,132.5 
			48.5,137.8 48.5,137.8 48.5,137.8 		"/>
		<polygon class="st4" points="48.5,137.8 73,132.5 69.2,129.2 69.2,113.1 69.2,113.1 69.2,113.1 48.5,117.3 		"/>
		<polygon class="st4" points="48.5,137.8 24,132.5 7.6,132.5 45.5,141 48.5,144.9 		"/>
		<polygon class="st8" points="48.5,137.8 73,132.5 89.4,132.5 51.5,141 48.5,144.9 		"/>
	</g>
	<g id="ears_5_">
		<polygon class="st9" points="15.2,45.6 9.8,45.6 11.5,70.4 15.2,70.4 		"/>
		<polygon class="st9" points="81.8,45.6 87.2,45.6 85.5,70.4 81.8,70.4 		"/>
	</g>
	<g id="face_13_">
		<polygon class="st10" points="60.9,4.9 48.5,4.9 36.1,4.9 15.2,20.2 15.2,76.3 35.9,106.6 48.5,106.6 61.2,106.6 81.8,76.3 
			81.8,20.2 		"/>
		<polygon class="st11" points="48.5,4.9 36.1,4.9 15.2,20.2 15.2,76.3 35.9,106.6 48.5,106.6 		"/>
		<polygon class="st12" points="48.5,105.4 61.2,104.6 66.8,84.1 81.8,59.9 81.8,20.2 60.9,4.9 48.5,4.9 		"/>
		<polygon class="st9" points="48.5,105.4 35.9,104.6 30.2,84.1 15.2,59.9 15.2,20.2 36.1,4.9 48.5,4.9 		"/>
		<g id="nose_5_">
			<polygon class="st6" points="42.5,72.2 48.5,75.4 54.5,72.2 			"/>
			<polygon class="st13" points="54.5,72.2 48.5,73.3 42.5,72.2 48.5,48.2 48.5,48.2 			"/>
			<polygon class="st14" points="48.5,48.2 48.5,48.2 54.5,72.2 48.5,73.3 			"/>
		</g>
		<linearGradient id="SVGID_1_" gradientUnits="userSpaceOnUse" x1="46.2106" y1="37.7158" x2="39.2678" y2="95.2906">
			<stop  offset="0" style="stop-color:#FFFFFF"/>
			<stop  offset="1" style="stop-color:#FFFFFF;stop-opacity:0"/>
		</linearGradient>
		<polygon class="st15" points="30.2,84.1 35.9,104.6 48.5,105.4 48.5,84.1 		"/>
		
			<linearGradient id="SVGID_2_" gradientUnits="userSpaceOnUse" x1="3587.4875" y1="61.8287" x2="3612.8232" y2="95.753" gradientTransform="matrix(-1 0 0 1 3666.6106 0)">
			<stop  offset="0" style="stop-color:#FFFFFF"/>
			<stop  offset="1" style="stop-color:#FFFFFF;stop-opacity:0"/>
		</linearGradient>
		<polygon class="st16" points="66.8,84.1 61.2,104.6 48.5,105.4 48.5,84.1 		"/>
		<g id="eyes_9_">
			<line class="st17" x1="23.7" y1="52.8" x2="42.4" y2="52.8"/>
			<line class="st17" x1="53.9" y1="52.8" x2="72.6" y2="52.8"/>
		</g>
	</g>
	<g id="hair_7_">
		<polygon class="st18" points="75.5,5.4 48.5,0 21.5,5.4 12.5,18.4 13.1,23.9 24.6,23.9 24.7,20.1 48.5,23.9 70.8,19.3 72.1,23.9 
			83.8,23.9 84.5,18.4 		"/>
		<polygon class="st19" points="13.1,23.9 14.5,35.9 15.2,70.4 16.2,45.6 22.3,33.6 24.6,23.9 		"/>
		<polygon class="st19" points="72.1,23.9 74.6,33.6 80.8,45.6 81.8,70.4 82.5,35.9 83.8,23.9 		"/>
		<polygon class="st18" points="55.5,20.8 59.3,23.8 56.5,27.1 56.5,23.9 49.6,22.1 		"/>
	</g>
	<g id="symbol_5_">
		<path class="st20" d="M25.5,184.2c0-12.7,10.3-23.1,23.1-23.1s23.1,10.3,23.1,23.1c0,12.7-10.3,23.1-23.1,23.1
			S25.5,196.9,25.5,184.2z"/>
		<path class="st3" d="M51.7,203.1h-4.2v-16.4H30.1L51.7,165v17.4H62v4.2H51.7V203.1z M40.3,182.4h7.2v-7.2L40.3,182.4z"/>
		<path class="st21" d="M48.5,207.2c-12.7,0-23.1-10.3-23.1-23.1c0-12.7,10.3-23.1,23.1-23.1"/>
		<path class="st22" d="M71.6,184.2c0,12.7-10.3,23.1-23.1,23.1c-12.7,0-23.1-10.3-23.1-23.1"/>
		<path class="st3" d="M48.5,208.9c-13.6,0-24.7-11.1-24.7-24.7c0-13.6,11.1-24.8,24.7-24.8v3.4c-11.8,0-21.4,9.6-21.4,21.4
			c0,11.8,9.6,21.4,21.4,21.4V208.9z"/>
		<path class="st4" d="M48.5,205.6c11.8,0,21.4-9.6,21.4-21.4c0-11.8-9.6-21.4-21.4-21.4v-3.4c13.6,0,24.7,11.1,24.7,24.8
			c0,13.6-11.1,24.7-24.7,24.7V205.6z"/>
	</g>
</g>
</svg>
