<?xml version="1.0" encoding="utf-8"?>
<!-- Generator: Adobe Illustrator 22.0.1, SVG Export Plug-In . SVG Version: 6.00 Build 0)  -->
<svg version="1.1" id="Capa_1" xmlns="http://www.w3.org/2000/svg" xmlns:xlink="http://www.w3.org/1999/xlink" x="0px" y="0px"
	 viewBox="0 0 97 213.7" style="enable-background:new 0 0 97 213.7;" xml:space="preserve">
<style type="text/css">
	.st0{fill:#C3443A;}
	.st1{fill:#C54944;}
	.st2{opacity:0.5;fill:#40170B;}
	.st3{opacity:0.4;fill:#40170B;}
	.st4{fill:#446EAA;}
	.st5{opacity:0.6;fill:#9A2830;}
	.st6{fill-rule:evenodd;clip-rule:evenodd;fill:#434243;}
	.st7{fill:#272424;}
	.st8{opacity:0.8;fill:#7D1927;}
	.st9{fill:#C85554;}
	.st10{opacity:0.5;fill:#7D1927;}
	.st11{opacity:0.9;fill:#7D1927;}
	.st12{opacity:0.7;fill:#9A2830;}
	.st13{fill:#9A2830;}
	.st14{opacity:0.4;fill:#7D1927;}
	.st15{opacity:0.2;fill:#7D1927;}
	.st16{opacity:0.4;fill:#C54944;}
	.st17{fill:#E6E6E7;}
	.st18{fill:#F1F1F2;}
</style>
<g id="spiderman">
	<g id="chest_5_">
		<rect y="126.4" class="st0" width="97" height="87.3"/>
		<rect y="126.4" class="st1" width="97" height="52"/>
		<g>
			<polygon class="st2" points="17.3,213.7 0,209.5 0,210.1 15.2,213.7 			"/>
			<path class="st3" d="M4,139.6l-4,3.3v0.6l4.3-3.5l15.1,10.2l-9.6,18.4L0,161.5v0.6l9.5,6.9L0,187.1v1.1l0.2-0.3l48.1,11.2l0,14.6
				h0.5l0-14.6l48-11.2l0.1,0.3v-1.1l-9.4-17.9l9.4-6.8l0-0.6l-9.6,7l-9.7-18.4L92.8,140l4.1,3.4v-0.6l-3.8-3.1l3.8-12.4v-0.8
				l-0.1,0h-0.1l-4,12.9L80,128.9l-12.7-2.5H66l0,0.2l13.8,2.7l12.7,10.4l-15,10.2l-7.1-13.6l-11-4.7l-0.2,0.5l10.9,4.6l7,13.4
				l-28.2,6.6l0-23.2h-0.5l0,23.2l-28.2-6.8l6.9-13.2l10.9-4.6l-0.2-0.5l-10.9,4.6l-0.1,0l-7,13.4L4.7,139.6l12.7-10.4l13.6-2.7
				l0-0.3h-1.3l-12.5,2.4l-0.1,0L4.4,139.2l-4.2-12.9H0v0.8L4,139.6z M96.6,187.4l-47.8,11.1l0-20.2l38.3-8.9L96.6,187.4z
				 M77.2,150.5l9.7,18.4l-38.1,8.9l0-20.7L77.2,150.5z M48.3,198.6L0.4,187.5l9.6-18.3l38.3,9.2L48.3,198.6z M19.9,150.3l28.4,6.8
				l0,20.7l-38.1-9.1L19.9,150.3z"/>
			<polygon class="st2" points="97,209.8 80.3,213.7 82.5,213.7 97,210.3 			"/>
		</g>
		<polygon class="st4" points="0,192.7 10.2,213.7 0,213.7 		"/>
		<polygon class="st4" points="96.9,192.7 86.8,213.7 97,213.7 		"/>
		<polygon class="st5" points="48.5,126.4 0,126.4 0,213.7 48.5,213.7 		"/>
		<g id="symbol_3_">
			<polygon class="st6" points="65.7,195.4 65.2,189.5 53.8,179.6 51.4,179.8 51.5,179.5 53.7,179 63.6,185.4 64.8,185.6 63,173.1 
				57.3,161.8 61.7,173.2 62.3,182.4 53.7,177.5 51.4,178.1 51.3,177.9 53.5,176.2 57.4,178 58.7,178.2 58.1,170.7 53.7,159.9 
				56.8,170.8 56.9,175.8 53.5,174.7 50.9,176.7 49.3,174 49.3,175.7 48.6,176 47.8,175.7 47.8,174 46.3,176.7 43.7,174.7 
				40.2,175.8 40.4,170.8 43.5,159.9 39.1,170.7 38.5,178.2 39.7,178 43.7,176.2 45.9,177.9 45.8,178.1 43.5,177.5 34.8,182.4 
				35.4,173.2 39.9,161.8 34.2,173.1 32.4,185.6 33.6,185.4 43.5,179 45.7,179.5 45.8,179.8 43.4,179.6 32,189.5 31.5,195.4 
				36.2,203.1 33.7,195.4 34,190 43.9,180.9 46.1,180.8 43.8,182.3 37.2,193.1 36.7,199 41.4,210.9 38.9,199 39.2,193.6 44.3,183.6 
				46.4,181.9 46.5,182.4 45.2,184.9 45.2,188.5 47.9,193.1 48.6,192.4 49.3,193.1 52,188.5 52,184.9 50.7,182.4 50.8,181.9 
				52.9,183.6 58,193.6 58.3,199 55.7,210.9 60.5,199 60,193.1 53.4,182.3 51.1,180.8 53.3,180.9 63.2,190 63.5,195.4 61,203.1 			
				"/>
			<polygon class="st7" points="48.5,176 47.8,175.7 47.8,174 46.3,176.7 43.7,174.7 40.2,175.8 40.4,170.8 43.5,159.9 39.1,170.7 
				38.5,178.2 39.7,178 43.7,176.2 45.9,177.9 45.8,178.1 43.5,177.5 34.8,182.4 35.4,173.2 39.9,161.8 34.2,173.1 32.4,185.6 
				33.6,185.4 43.5,179 45.7,179.5 45.8,179.8 43.4,179.6 32,189.5 31.5,195.4 36.2,203.1 33.7,195.4 34,190 43.9,180.9 46.1,180.8 
				43.8,182.3 37.2,193.1 36.7,199 41.4,210.9 38.9,199 39.2,193.6 44.3,183.6 46.4,181.9 46.5,182.4 45.2,184.9 45.2,188.5 
				47.9,193.1 48.5,192.5 			"/>
		</g>
	</g>
	<g id="neck_5_">
		<polygon class="st0" points="83.7,126.4 83.3,126.4 66,118.4 65.9,106 65.9,96.2 65.9,95 48.5,95 31.1,95 31.1,96.2 31.1,106 
			31.1,118.4 13.8,126.4 13.4,126.4 26.8,136.6 48.5,141.8 70.2,136.7 		"/>
		<polygon class="st8" points="31.1,118.4 13.8,126.4 31.1,126.4 		"/>
		<polygon class="st9" points="48.5,133.4 59.4,132 66,126.4 83.3,126.4 70.2,136.5 48.5,141.5 		"/>
		<polygon class="st0" points="66,126.4 59.2,131.9 48.5,133.4 37.8,131.9 31.1,126.3 31.1,95 65.9,95 		"/>
		<polygon class="st10" points="48.5,133.4 37.8,131.9 31.1,126.4 31.1,95 48.5,95 		"/>
		<polygon class="st11" points="48.5,98.2 31.1,98.2 31.1,103.5 35.3,110.5 48.5,113.5 		"/>
		<polygon class="st12" points="48.5,113.5 61.7,110.5 66,103.6 65.9,98.2 48.5,98.2 		"/>
		<polygon class="st13" points="48.5,133.4 37.8,131.9 31.1,126.4 13.8,126.4 27,136.4 48.5,141.5 		"/>
		<polygon class="st5" points="66,118.4 66,126.4 83.3,126.4 		"/>
		<path class="st3" d="M83.3,126.4l-0.3-0.1l-3.3,2.5l-13.5-2.6l2-6.7l-0.5-0.2l-2.1,7l-6.2,5.1v-9l6.5-5.2l0-0.6l0-0.1l-6.4,5.2v-9
			l6.4-5.2l0-0.6l-6.4,5.2v-9l6.4-5.2v-0.4l-0.1-0.2l-6.3,5.1v-6.7H59v7l-10.3,1.5l0-2.5h-0.5l0,2.5L38,102.8v-7.1h-0.5v6.7
			l-6.3-5.1l-0.2,0.2v0.3l6.5,5.3v9l-6.5-5.3v0.7l6.5,5.3v9l-6.5-5.3v0.7l6.5,5.3v9l-6.3-5.1l-2.1-7l-0.5,0.2l2,6.7l-13.3,2.6
			l-3.3-2.5l-0.3,0.1l-0.4,0l13.4,10.2l21.7,5.2l21.7-5.1l13.5-10.3H83.3z M59,103.3v9.1l-10.3,1.5l0-9.1L59,103.3z M48.7,123.5
			l0-9.1l10.3-1.5v9.1L48.7,123.5z M59,122.5v9.1l-10.3,1.5l0-9.1L59,122.5z M38,103.3l10.2,1.5l0,9.1L38,112.4V103.3z M38,112.9
			l10.2,1.5l0,9.1L38,122V112.9z M38,122.5l10.2,1.5l0,9.1L38,131.6V122.5z M17.9,129.2l13-2.5l6.3,5.1l-10.2,4.3L17.9,129.2z
			 M48.5,141.3l-20.6-5l10-4.2l10.6,1.6l0,0l10.7-1.6l10.2,4.3L48.5,141.3z M70.1,136.2l-10.4-4.4l6.3-5.1l13.2,2.6L70.1,136.2z"/>
	</g>
	<g id="mask_3_">
		<path class="st0" d="M61.2,106.7l20.6-30.3l0-55.6L61.9,0H48.5H35.1L15.2,20.7l0,55.6l20.6,30.3h12.7H61.2z"/>
		<path class="st3" d="M81.8,30.4l-8.2,6l-11-10.8l5.3-11.3l13.9,14.4l0-0.7L68.1,13.7l2.3-4.9L70,8.5l-2.3,5L48.9,6.3l-0.2,0.1
			l0-6.4h-0.3h-0.3l0,6.6l-18.5,7.3l-2.6-5.6l-0.4,0.4l2.5,5.5L15.2,28.2v0.7l0,0l14.3-14.3l5,10.8L23.4,36.3l-8.2-6l0,0.6l7.9,5.8
			l-5,17.8l0.1,0.2h-3v0.3v0.2h3.1l5,17.7l0.1,0.2l-6.1,4.5l-2.1-7.4v0l0,1.8l1.7,5.9l-0.4,0.3l0.3,0.4l0.4-0.3L30,94l-1.1,2.4
			l0.3,0.5l1.2-2.6l17.8,6.6l0,5.8h0.3h0.3l0-5.8l17.7-6.2l1.1,2.4l0.3-0.5l-1-2.2l12.9-16l0.4,0.3l0.3-0.4L80,78l1.7-5.5l0-1.6
			l-2.2,6.8L73,72.9l5.6-17.6h3.1v-0.2v-0.3h-3l0-0.2l0-0.1l-5-17.8l7.9-5.8L81.8,30.4z M47.8,55.3L41.4,60L40,55.3H47.8z
			 M40.2,54.8l1.3-4.6l6.2,4.6H40.2z M44,64.1l-3.8,8.1l-5.7-6.6l6.6-4.8L44,64.1z M41.5,60.5l6.3-4.6l-3.6,7.8L41.5,60.5z
			 M41.8,49.8l2.8-2.7l3.3,7.2L41.8,49.8z M41.3,49.5l-6.8-5l6.1-5.8l3.7,8.1L41.3,49.5z M41,49.9l-1.4,4.9h-8.1l2.8-9.9L41,49.9z
			 M39.5,55.3l1.4,5l-6.6,4.8l-2.8-9.8H39.5z M40,72.7l-5.7,12.2L24.1,73.2l10-7.3L40,72.7z M40.4,72.9l7.8,2.6l0,14.2l-13.6-4.4
			L40.4,72.9z M40.6,72.5l3.8-8l3.9,1.3l0,9.3L40.6,72.5z M48.2,65.2L44.6,64l3.6-7.8L48.2,65.2z M48.2,54L45,46.9l3.3-1L48.2,54z
			 M44.8,46.5L41,38.4l7.2-2.3l0,9.3L44.8,46.5z M40.8,37.9l-5.7-12.3l13.1-4.2l0,14.2L40.8,37.9z M30,14.3l18.3-7.2l0,13.7L35,25.2
			L30,14.3z M34.7,25.9l5.7,12.3l-6.3,6l-10.3-7.6L34.7,25.9z M18.6,54.6L23.6,37l10.3,7.6L31,54.8H18.7L18.6,54.6z M18.8,55.3H31
			l2.9,10.1l-10.1,7.4l-0.1-0.1L18.8,55.3z M30.3,93.5L17.6,78l6.2-4.5L34,85.4L30.3,93.5z M30.7,93.8l3.8-8.2l13.8,4.5l0,10.2
			L30.7,93.8z M73.2,36.7l-10.3,7.5l-6.2-6L62.4,26L73.2,36.7z M49.3,54.8l6.3-4.6l1.3,4.6H49.3z M56.9,55.3l-1.5,4.6l-6.3-4.6H56.9
			z M52.7,46.7l3.7-8l6.1,5.8l-6.8,5L52.7,46.7z M55.2,49.8l-6.1,4.5l3.3-7.1L55.2,49.8z M55.3,60.4l-2.6,3.2l-3.6-7.8L55.3,60.4z
			 M55.7,60.7l6.4,4.7l-5.5,6.7l-3.7-8L55.7,60.7z M62.5,65.8l9.8,7.2l-9.9,11.9l-5.6-12.2L62.5,65.8z M62.4,65l-6.5-4.8l1.6-5h7.9
			L62.4,65z M57.4,54.8L56,49.9l6.7-4.9l2.8,9.8H57.4z M48.9,6.9l18.6,7l-5.3,11.4l-13.4-4.4l0-13.9L48.9,6.9z M61.9,25.7L56.2,38
			l-7.5-2.4l0-14.2L61.9,25.7z M48.7,36.1l7.3,2.3l-3.8,8.1l-3.5-1.1L48.7,36.1z M48.7,45.9l3.3,1.1l-3.3,7L48.7,45.9z M52.3,64
			l-3.6,1.2l0-8.9L52.3,64z M52.5,64.4l3.7,8L48.7,75l0-9.3L52.5,64.4z M56.4,72.9l5.7,12.3l-13.3,4.5l0-14.2L56.4,72.9z
			 M48.8,100.4l0-10.2l13.5-4.6l4,8.6L48.8,100.4z M79.4,78.2L66.7,94l-4-8.6l10.1-12.1L79.4,78.2z M72.6,72.5l-9.8-7.2l3.1-10h12.2
			L72.6,72.5z M78.3,54.6l-0.1,0.2H66l-2.9-10.1l10.3-7.5L78.3,54.6z"/>
		<path class="st14" d="M48.5,20.7H15.2l0,55.6l20.6,30.3h12.7L48.5,20.7z"/>
		<polygon class="st15" points="15.2,20.7 35.1,0 48.5,0 48.5,20.7 		"/>
		<polygon class="st16" points="81.8,20.7 61.9,0 48.5,0 48.5,20.7 		"/>
	</g>
	<g id="eyes_5_">
		<g>
			<polygon class="st17" points="32.8,69.9 23.5,66.7 18.3,56.6 17.7,39.2 44.9,54.9 39.1,66.2 			"/>
			<path class="st7" d="M20.3,39.7l-4.8-6.9l0,6.5c0,0.7,1.3,17.8,1.3,17.8l5.9,10.4l10,3.5l7.1-4.1l5.6-10.7l1-2.9l-1.7,0.4
				L20.3,39.7z M38.3,65.4l-5.5,3.4c-1.5-0.4-2.9-0.9-4.3-1.4c-0.8-0.3-1.6-0.6-2.3-0.8l-1.9-0.7L22,61.1l-2.1-4.8l-0.5-12.7
				l24.4,11.8L38.3,65.4z"/>
		</g>
		<g>
			<polygon class="st18" points="57.9,66.2 52.1,54.9 79.3,39.2 78.7,56.6 73.6,66.7 64.2,69.9 			"/>
			<path class="st7" d="M52.1,53.8l-1.7-0.4l1,2.9L57,66.9l7.1,4.1l10-3.5l5.9-10.4c0,0,1.3-17.1,1.3-17.8l0-6.5l-4.8,6.9L52.1,53.8
				z M53.3,55.4l24.4-11.8l-0.5,12.7L75,61.1l-2.2,4.8l-1.9,0.7c-0.8,0.3-1.5,0.6-2.3,0.8c-1.4,0.5-2.9,1-4.3,1.4l-5.5-3.4
				L53.3,55.4z"/>
		</g>
	</g>
</g>
</svg>
