<?xml version="1.0" encoding="utf-8"?>
<!-- Generator: Adobe Illustrator 22.0.1, SVG Export Plug-In . SVG Version: 6.00 Build 0)  -->
<svg version="1.1" id="Capa_1" xmlns="http://www.w3.org/2000/svg" xmlns:xlink="http://www.w3.org/1999/xlink" x="0px" y="0px"
	 viewBox="0 0 97 213.9" style="enable-background:new 0 0 97 213.9;" xml:space="preserve">
<style type="text/css">
	.st0{fill:#5D91C4;}
	.st1{opacity:0.7;fill:#527BB0;}
	.st2{fill:#EBD342;}
	.st3{fill:url(#SVGID_1_);}
	.st4{fill:#9A2830;}
	.st5{fill:#C3443A;}
	.st6{opacity:0.4;fill:#9A2830;}
	.st7{fill:#E0C2AD;}
	.st8{opacity:0.8;fill:#9A2830;}
	.st9{fill:#D3B19B;}
	.st10{opacity:0.5;fill:#A18573;}
	.st11{opacity:0.5;fill:#BE9E89;}
	.st12{opacity:0.7;fill:#9A2830;}
	.st13{opacity:0.1;fill:#9A2830;}
	.st14{fill:#E8D8C9;}
	.st15{fill:#E0C3AD;}
	.st16{opacity:0.1;fill:#E8D8C9;}
	.st17{fill:url(#SVGID_2_);}
	.st18{fill:#BE9E89;}
	.st19{fill:#CDA9A1;}
	.st20{fill:url(#SVGID_3_);}
	.st21{fill:url(#SVGID_4_);}
	.st22{fill:url(#SVGID_5_);}
	.st23{fill:#272424;}
	.st24{fill:#6B594C;}
</style>
<g>
	<g id="chest_3_">
		<rect x="0" y="126.5" class="st0" width="97" height="87.3"/>
		<polygon class="st1" points="48.5,126.5 0,126.5 0,213.9 48.5,213.9 		"/>
		<g>
			<polygon class="st2" points="79.7,168.9 48.5,168.9 17.3,168.9 0,184.8 0,200.4 12.6,213.9 84.2,213.9 97,200.6 97,184.7 			"/>
			<linearGradient id="SVGID_1_" gradientUnits="userSpaceOnUse" x1="188.5117" y1="35.0606" x2="22.5427" y2="201.0296">
				<stop  offset="0" style="stop-color:#C75A33"/>
				<stop  offset="1" style="stop-color:#C75A33;stop-opacity:0"/>
			</linearGradient>
			<polygon class="st3" points="48.5,168.9 17.3,168.9 0,184.8 0,200.4 12.6,213.9 48.5,213.9 			"/>
			<path class="st4" d="M69,194l-34.4,0.1l-3.9-3.5l0-7.1l10.5-8.6l7.3,0l5.8,0L72,185.3l0,2.3h10.6v-8.3L97,192.6
				c0-7.1,0-13.5,0-13.7l-15.4-14l-33.1,0l-33.1,0L0,179l0,13.6l19.2-17.7l6.7,0l-13.8,13.4V207L0,194.1l0,14.6l4.8,5.2
				c1.3,0,87.3,0,87.3,0l4.9-5.4c0-3.4,0-9,0-14.4l-13.3,14.1L69,194z M77.5,174.9v3.7l-7.2-3.7L77.5,174.9z"/>
			<path class="st5" d="M69,193l-34.4,0.1l-3.9-3.5l0-7.1l10.5-8.6l7.3,0l5.8,0L72,184.3l0,2.3h10.6v-8.3L97,191.6
				c0-7.1,0-13.5,0-13.7l-15.4-14l-33.1,0l-33.1,0L0,178l0,13.6l19.2-17.7l6.7,0l-13.8,13.4V206L0,193.1l0,14.6l5.7,6.2
				c1.3,0,7.5,0,11.1,0c1.6,0,2.7,0,2.7,0h57.9h1.2h12.5l5.9-6.4c0-3.4,0-9,0-14.4l-13.3,14.1L69,193z M77.5,173.9v3.7l-7.2-3.7
				L77.5,173.9z"/>
			<path class="st6" d="M34.6,193.1l-3.9-3.5l0-7.1l10.5-8.6l7.3,0l0-10l-33.1,0L0,178l0,13.6l19.2-17.7l6.7,0l-13.8,13.4V206
				L0,193.1l0,14.6l5.7,6.2c1.3,0,7.5,0,11.1,0c1.6,0,2.7,0,2.7,0h28.9l0-20.8L34.6,193.1z"/>
		</g>
	</g>
	<g id="neck_3_">
		<polygon class="st7" points="95.9,126.5 90.6,118.5 75.5,118.5 75.5,90 48.5,89.9 21.5,90 21.5,118.5 6.4,118.5 1,126.5 
			48.5,158.9 		"/>
		<polygon class="st5" points="21.5,118.5 6.4,118.5 1,126.5 21.5,126.5 		"/>
		<polygon class="st8" points="21.5,118.5 6.4,118.5 1,126.5 21.5,126.5 		"/>
		<polygon class="st7" points="75.5,126.5 48.5,150.8 21.5,126.5 21.5,90 75.5,90 		"/>
		<polygon class="st9" points="48.5,133.7 21.5,126.5 21.5,90 48.5,89.9 		"/>
		<polygon class="st10" points="48.5,89.9 21.5,90 21.5,97.1 36.4,113.8 48.5,113.7 		"/>
		<polygon class="st11" points="48.5,89.9 75.5,90 75.5,97.1 60.6,113.8 48.5,113.7 		"/>
		<polygon class="st5" points="48.5,150.8 6.4,118.5 1,126.5 48.5,158.9 		"/>
		<polygon class="st6" points="48.5,150.8 6.4,118.5 1,126.5 48.5,158.9 		"/>
		<polygon class="st5" points="75.5,118.5 90.6,118.5 95.9,126.5 75.5,126.5 		"/>
		<polygon class="st12" points="75.5,118.5 90.6,118.5 95.9,126.5 75.5,126.5 		"/>
		<polygon class="st5" points="48.5,150.8 90.6,118.5 95.9,126.5 48.5,158.9 		"/>
		<polygon class="st13" points="48.5,150.8 90.6,118.5 95.9,126.5 48.5,158.9 		"/>
		<polygon class="st14" points="48.5,133.7 48.5,150.8 80.1,126.5 75.5,126.5 		"/>
	</g>
	<g id="face_3_">
		<polygon class="st15" points="8.6,66.8 14.1,66.8 14.1,44.4 6.6,44.4 		"/>
		<polygon class="st15" points="82.8,66.8 88.3,66.8 90.3,44.4 82.8,44.4 		"/>
		<polygon class="st7" points="61.3,4 48.5,4 35.7,4 14,22.8 14,82 35.4,106.8 48.5,106.8 61.6,106.8 82.9,82 82.9,22.8 		"/>
		<polygon class="st16" points="48.5,103.8 35.1,104.8 27.8,80 14,66.8 13.9,22.8 35.6,4 48.5,4 		"/>
		
			<linearGradient id="SVGID_2_" gradientUnits="userSpaceOnUse" x1="54.1307" y1="30.9404" x2="166.0924" y2="65.1861" gradientTransform="matrix(1 0 0 1 -74.3047 0)">
			<stop  offset="0" style="stop-color:#FFFFFF"/>
			<stop  offset="1" style="stop-color:#FFFFFF;stop-opacity:0"/>
		</linearGradient>
		<polygon class="st17" points="48.5,103.8 61.5,104.7 69.1,80 82.8,66.8 82.9,22.8 61.3,4 48.5,4 		"/>
		<g id="nose">
			<polygon class="st18" points="41.9,66.4 48.5,68.9 55.1,66.4 			"/>
			<polygon class="st19" points="56,66.4 48.5,67.3 41,66.4 45.3,50.3 51.6,50.3 			"/>
			<linearGradient id="SVGID_3_" gradientUnits="userSpaceOnUse" x1="30.2951" y1="58.7998" x2="61.0452" y2="58.7998">
				<stop  offset="0" style="stop-color:#FFFFFF"/>
				<stop  offset="1" style="stop-color:#FFFFFF;stop-opacity:0"/>
			</linearGradient>
			<polygon class="st20" points="48.5,50.3 51.6,50.3 56,66.4 48.5,67.3 			"/>
		</g>
		<linearGradient id="SVGID_4_" gradientUnits="userSpaceOnUse" x1="38.1513" y1="-82.7156" x2="38.1513" y2="103.7982">
			<stop  offset="0" style="stop-color:#FFFFFF"/>
			<stop  offset="1" style="stop-color:#FFFFFF;stop-opacity:0"/>
		</linearGradient>
		<polygon class="st21" points="27.8,80 35.2,104.8 48.5,103.8 48.5,80 		"/>
		
			<linearGradient id="SVGID_5_" gradientUnits="userSpaceOnUse" x1="3578.5229" y1="54.9391" x2="3606.9783" y2="93.0405" gradientTransform="matrix(-1 0 0 1 3661.4348 0)">
			<stop  offset="0" style="stop-color:#FFFFFF"/>
			<stop  offset="1" style="stop-color:#FFFFFF;stop-opacity:0"/>
		</linearGradient>
		<polygon class="st22" points="69.2,80 61.5,104.7 48.5,103.8 48.5,80 		"/>
	</g>
	<g id="hair">
		<polygon class="st23" points="77.2,4 64.9,0 48.5,0 48.5,0 32.1,0 21.5,12.8 12.3,15 13.9,62.1 17.1,41.8 22.1,36.5 24.8,20 
			27.8,23.4 73.4,28.3 74.9,36.5 79.9,41.8 83.1,62.1 84.6,15 		"/>
		<polygon class="st23" points="54.5,22.2 48.5,25.6 57.8,29.9 55.5,34.2 51.2,34 52,31.6 49.8,33.9 56.2,38.5 59.9,31.8 60.5,26.5 
					"/>
	</g>
	<g id="eyebrows">
		<rect x="22.5" y="50.8" class="st24" width="18.1" height="1"/>
		<rect x="56.3" y="50.8" class="st24" width="18.1" height="1"/>
	</g>
</g>
</svg>
